<?xml version="1.0" encoding="UTF-8"?>
<svg width="176px" height="100px" viewBox="0 0 176 100" version="1.1" xmlns="http://www.w3.org/2000/svg" xmlns:xlink="http://www.w3.org/1999/xlink">
    <!-- Generator: Sketch 56 (81588) - https://sketch.com -->
    <title>Logo / Morrisons /1440</title>
    <desc>Created with Sketch.</desc>
    <g id="Logo-/-Morrisons-/1440" stroke="none" stroke-width="1" fill="none" fill-rule="evenodd">
        <g id="Logo-/-Morrisons">
            <rect id="Rectangle-Copy-7" fill-opacity="0.1" fill="#D8D8D8" opacity="0" x="0" y="0" width="176" height="100"></rect>
            <g id="Group-6" transform="translate(39.000000, 25.000000)" fill="#D4D8D4">
                <path d="M60.8028145,48.1754208 C60.4102307,48.1754208 60.1727898,47.9691775 60.1727898,47.6701766 L60.1727898,47.660849 C60.1727898,47.3623663 60.3952169,47.1504229 60.7872446,47.1504229 C61.184833,47.1504229 61.42283,47.3670301 61.42283,47.6655128 L61.42283,47.6753586 C61.42283,47.9639955 61.1953983,48.1754208 60.8028145,48.1754208 L60.8028145,48.1754208 Z M60.6532323,50 C61.6808454,50 62.2335766,49.253275 62.2335766,48.1609112 L62.2335766,48.1515836 C62.2335766,47.4872523 62.0628639,47.1219219 61.8048485,46.8809593 C61.5312632,46.6260053 61.2471126,46.5151107 60.7616655,46.5151107 C59.9453581,46.5151107 59.3826177,47.0156911 59.3826177,47.6940138 L59.3826177,47.7038595 C59.3826177,48.386846 59.8886392,48.7910414 60.6738068,48.7910414 C60.9885411,48.7910414 61.2315427,48.7003565 61.4072601,48.5604427 C61.3555458,49.0128306 61.1175488,49.3258229 60.6738068,49.3258229 C60.3690817,49.3258229 60.1472107,49.2341016 59.8836346,49.0366678 L59.4654717,49.5999503 C59.7701968,49.8357309 60.1266362,50 60.6532323,50 L60.6532323,50 Z M57.4358247,48.1754208 C57.043797,48.1754208 56.8058,47.9691775 56.8058,47.6701766 L56.8058,47.660849 C56.8058,47.3623663 57.0282271,47.1504229 57.4202548,47.1504229 C57.8178432,47.1504229 58.0558402,47.3670301 58.0558402,47.6655128 L58.0558402,47.6753586 C58.0558402,47.9639955 57.8284085,48.1754208 57.4358247,48.1754208 L57.4358247,48.1754208 Z M57.2862425,50 C58.3138556,50 58.8665869,49.253275 58.8665869,48.1609112 L58.8665869,48.1515836 C58.8665869,47.4872523 58.6958741,47.1219219 58.4378587,46.8809593 C58.1642734,46.6260053 57.8801228,46.5151107 57.3946757,46.5151107 C56.5783684,46.5151107 56.0161839,47.0156911 56.0161839,47.6940138 L56.0161839,47.7038595 C56.0161839,48.386846 56.5216495,48.7910414 57.306817,48.7910414 C57.6215513,48.7910414 57.8645529,48.7003565 58.0402703,48.5604427 C57.988556,49.0128306 57.7511151,49.3258229 57.306817,49.3258229 C57.0020919,49.3258229 56.7802209,49.2341016 56.5166448,49.0366678 L56.0984819,49.5999503 C56.403207,49.8357309 56.7596464,50 57.2862425,50 L57.2862425,50 Z M54.1767121,49.3786792 C53.7841283,49.3786792 53.551692,49.1910911 53.551692,48.9599743 L53.551692,48.9501285 C53.551692,48.6899925 53.8152681,48.5360874 54.1767121,48.5360874 C54.538156,48.5360874 54.8017321,48.6899925 54.8017321,48.9501285 L54.8017321,48.9599743 C54.8017321,49.1957549 54.5692958,49.3786792 54.1767121,49.3786792 L54.1767121,49.3786792 Z M54.1767121,47.9494859 C53.8619777,47.9494859 53.6601252,47.7712254 53.6601252,47.5354448 L53.6601252,47.5261172 C53.6601252,47.3193558 53.8514125,47.1359133 54.1767121,47.1359133 C54.5020116,47.1359133 54.6932989,47.3235014 54.6932989,47.530781 L54.6932989,47.5401086 C54.6932989,47.7758892 54.4920024,47.9494859 54.1767121,47.9494859 L54.1767121,47.9494859 Z M54.1767121,49.989636 C54.9774495,49.989636 55.5713298,49.6243056 55.5713298,48.998321 L55.5713298,48.9884753 C55.5713298,48.5894619 55.3544634,48.3728547 54.9874587,48.1945941 C55.2666047,48.035507 55.4473267,47.819418 55.4473267,47.4582331 L55.4473267,47.4489056 C55.4473267,46.9291518 54.9413051,46.5249565 54.1767121,46.5249565 C53.412119,46.5249565 52.9060974,46.9338156 52.9060974,47.4489056 L52.9060974,47.4582331 C52.9060974,47.819418 53.0873755,48.035507 53.3659654,48.1945941 C52.9833908,48.3583451 52.7826504,48.5987895 52.7826504,49.0076486 L52.7826504,49.0174944 C52.7826504,49.604614 53.3765307,49.989636 54.1767121,49.989636 L54.1767121,49.989636 Z M51.341879,49.9414435 L52.1264905,49.9414435 L52.1264905,46.5487936 L51.5843245,46.5487936 L50.5461462,46.8379488 L50.7118543,47.4442418 L51.341879,47.2996642 L51.341879,49.9414435 Z M47.3137248,48.4495481 C47.3760043,48.1179007 47.5873101,47.9012934 47.9126097,47.9012934 C48.2434699,47.9012934 48.449771,48.1220463 48.4964807,48.4495481 L47.3137248,48.4495481 Z M47.9904591,50 C48.49092,50 48.8629293,49.8165575 49.1209447,49.5180748 L48.671642,49.1475624 C48.4547756,49.3351505 48.2640444,49.4123622 48.0004683,49.4123622 C47.6495896,49.4123622 47.4015835,49.2392836 47.3242901,48.907118 L49.2505085,48.907118 C49.2555131,48.8392339 49.2605177,48.771868 49.2605177,48.7143479 C49.2605177,47.9831689 48.8367941,47.3141738 47.9126097,47.3141738 C47.1074237,47.3141738 46.5441271,47.9204668 46.5441271,48.6568278 L46.5441271,48.6661554 C46.5441271,49.4558909 47.1585819,50 47.9904591,50 L47.9904591,50 Z M45.1650793,50 C45.7178105,50 46.0275402,49.8020479 46.2961209,49.5274024 L45.8362529,49.0941879 C45.6449657,49.2631208 45.4647997,49.3693516 45.2012237,49.3693516 C44.7724955,49.3693516 44.4989102,49.0511773 44.4989102,48.6568278 L44.4989102,48.646982 C44.4989102,48.267142 44.7775001,47.9448222 45.1700839,47.9448222 C45.4492298,47.9448222 45.6243912,48.0551986 45.8001085,48.2287953 L46.280551,47.7473883 C46.0219795,47.4774065 45.69668,47.3141738 45.1750885,47.3141738 C44.3281974,47.3141738 43.7237518,47.9204668 43.7237518,48.6568278 L43.7237518,48.6661554 C43.7237518,49.4025164 44.333202,50 45.1650793,50 L45.1650793,50 Z M40.6926269,49.9414435 L41.4777945,49.9414435 L41.4777945,48.5029226 C41.4777945,48.1562474 41.6690818,47.9785051 41.9682462,47.9785051 C42.2674106,47.9785051 42.443128,48.1562474 42.443128,48.5029226 L42.443128,49.9414435 L43.2282955,49.9414435 L43.2282955,48.272324 C43.2282955,47.6800224 42.8824214,47.3141738 42.2885412,47.3141738 C41.8909528,47.3141738 41.6585165,47.5116077 41.4777945,47.7276967 L41.4777945,47.3623663 L40.6926269,47.3623663 L40.6926269,49.9414435 Z M39.2212718,49.9414435 L40.0064394,49.9414435 L40.0064394,47.3618481 L39.2212718,47.3618481 L39.2212718,49.9414435 Z M39.2006973,47.0783932 L40.0270139,47.0783932 L40.0270139,46.4285714 L39.2006973,46.4285714 L39.2006973,47.0783932 Z M37.300058,49.989636 C38.0796649,49.989636 38.6273916,49.6144598 38.6273916,48.9449465 L38.6273916,48.9361371 C38.6273916,48.3484993 38.2142333,48.1028729 37.48078,47.9256488 C36.8557599,47.7758892 36.7011731,47.7038595 36.7011731,47.4820703 L36.7011731,47.4727427 C36.7011731,47.30951 36.8607645,47.179442 37.1654896,47.179442 C37.4707708,47.179442 37.7855051,47.304328 38.1058001,47.5116077 L38.5189584,46.9535072 C38.1525098,46.6783434 37.702651,46.5249565 37.1760549,46.5249565 C36.4381531,46.5249565 35.911001,46.9291518 35.911001,47.5401086 L35.911001,47.5499544 C35.911001,48.2189495 36.3808781,48.4065376 37.1093268,48.5796161 C37.7132163,48.7241937 37.8372194,48.8200605 37.8372194,49.0076486 L37.8372194,49.0174944 C37.8372194,49.2149283 37.6409275,49.3351505 37.3156279,49.3351505 C36.9024696,49.3351505 36.5616001,49.1765815 36.2363005,48.9257732 L35.7664234,49.4507089 C36.2001561,49.8113755 36.7528874,49.989636 37.300058,49.989636 L37.300058,49.989636 Z" id="Fill-1"></path>
                <path d="M51.5036496,27.8565585 C51.5036496,29.0404768 50.5427257,30 49.3576642,30 C48.1720175,30 47.2116788,29.0404768 47.2116788,27.8565585 C47.2116788,26.6732245 48.1720175,25.7142857 49.3576642,25.7142857 C50.5427257,25.7142857 51.5036496,26.6732245 51.5036496,27.8565585" id="Fill-3"></path>
                <path d="M58.5729482,27.5562414 C61.3195862,26.5536352 61.9753327,23.6238033 61.9753327,23.6238033 C61.9753327,23.6238033 59.5946147,21.801495 56.8479767,22.8035401 C54.1018982,23.8061463 53.4461517,26.7365393 53.4461517,26.7365393 C53.4461517,26.7365393 55.8268697,28.5582865 58.5729482,27.5562414 M63.1407935,18.2449641 C65.6720198,16.7794871 65.810219,13.7795233 65.810219,13.7795233 C65.810219,13.7795233 63.1503051,12.3998878 60.6196383,13.8653648 C58.0884119,15.3302807 57.9502128,18.3302446 57.9502128,18.3302446 C57.9502128,18.3302446 60.6101266,19.7104411 63.1407935,18.2449641 M54.3290596,20.457767 C55.5638997,17.8017303 53.9614611,15.2646372 53.9614611,15.2646372 C53.9614611,15.2646372 50.9938164,15.6641088 49.7584167,18.3201456 C48.5235766,20.9761823 50.1260153,23.5132754 50.1260153,23.5127149 C50.1260153,23.5132754 53.0942195,23.1132428 54.3290596,20.457767 M41.2018197,22.7996127 C38.4557413,21.7970065 36.0750233,23.6193148 36.0750233,23.6193148 C36.0750233,23.6193148 36.7307698,26.5497078 39.4768483,27.5517529 C42.2234863,28.553798 44.6042043,26.7320508 44.6042043,26.7320508 C44.6042043,26.7320508 43.9478982,23.8022189 41.2018197,22.7996127 M37.3803617,13.8653648 C34.8496949,12.3998878 32.189781,13.7795233 32.189781,13.7795233 C32.189781,13.7795233 32.3274207,16.7794871 34.858647,18.2444031 C37.3898734,19.7098801 40.0497872,18.3302446 40.0497872,18.3302446 C40.0497872,18.3302446 39.9110286,15.3302807 37.3803617,13.8653648 M45.7450466,10.4227282 C43.6787736,8.35131126 40.7530922,8.99371982 40.7530922,8.99371982 C40.7530922,8.99371982 40.1130119,11.926918 42.1792849,13.998896 C44.2455579,16.0714351 47.1712393,15.4290265 47.1712393,15.4290265 C47.1712393,15.4290265 47.811879,12.4952673 45.7450466,10.4227282 M51.4593292,4.55072124 C51.4593292,1.61976726 48.9376146,0 48.9376146,0 C48.9376146,0 46.4158999,1.61976726 46.4158999,4.55072124 C46.4158999,7.48111416 48.9376146,9.10088142 48.9376146,9.10088142 C48.9376146,9.10088142 51.4593292,7.48111416 51.4593292,4.55072124 M56.4809377,11.1010443 C56.4809377,9.92282774 55.52921,8.96903338 54.3542376,8.96903338 C53.1803841,8.96903338 52.2275374,9.92282774 52.2275374,11.1010443 C52.2275374,12.2792609 53.1803841,13.2336163 54.3542376,13.2336163 C55.52921,13.2336163 56.4809377,12.2792609 56.4809377,11.1010443 M46.9396019,19.8495829 C46.9396019,21.0272384 45.9878742,21.9815938 44.8134612,21.9815938 C43.6390483,21.9815938 42.6873206,21.0272384 42.6873206,19.8495829 C42.6873206,18.6719274 43.6390483,17.7175719 44.8134612,17.7175719 C45.9878742,17.7175719 46.9396019,18.6719274 46.9396019,19.8495829" id="Fill-4"></path>
                <path d="M94.3704116,36.409407 C96.191886,36.9569622 98,37.8478344 98,39.897881 L98,39.9394952 C98,42.2238953 96.2152668,43.5287193 93.2269799,43.5205445 C91.5012554,43.5161255 90.1145522,42.9400975 88.597028,41.8838635 C88.5558333,41.8575809 88.527999,41.8115863 88.527999,41.7595685 C88.527999,41.7250726 88.5408028,41.6927668 88.5614001,41.6675793 L89.8785176,39.6772162 C89.9046818,39.6366971 89.9514434,39.6098669 90.0043285,39.6098669 C90.0349462,39.6098669 90.0633372,39.6186278 90.0872746,39.6345069 L90.0967383,39.6399825 C91.3576306,40.4481739 92.3123459,40.8227016 93.4552209,40.8380332 C94.2284568,40.8478892 94.6465275,40.6113453 94.691619,40.1820621 L94.691619,40.1404479 C94.6843821,39.5923452 94.2011793,39.3464929 93.0299133,38.9960576 C92.8773815,38.954991 92.7215096,38.9133768 92.563411,38.8701199 C90.6305995,38.3587034 88.9098851,37.525872 88.9098851,35.4057384 L88.9098851,35.3646717 C88.9098851,33.2193506 90.6762477,31.9123364 93.407346,31.9123364 C94.7979459,31.9123364 96.0510446,32.2972677 97.3108236,32.9532388 C97.3586985,32.9778788 97.3915429,33.0271587 97.3915429,33.084652 C97.3915429,33.1087445 97.3854194,33.1311942 97.3748424,33.1514538 L96.1779689,35.1889065 C96.1540314,35.2392816 96.1022597,35.2743251 96.0421377,35.2743251 C96.0176435,35.2743251 95.9948194,35.268302 95.9742221,35.2578985 L95.9630884,35.2529705 C94.8419241,34.7032251 94.1210166,34.469419 93.338317,34.4612057 C92.6753048,34.4546351 92.1826382,34.731698 92.1826382,35.1664568 L92.1826382,35.2086185 C92.1826382,35.7233204 92.8701446,35.9494607 93.9824019,36.2894924 C94.1087695,36.3289164 94.2390339,36.3683404 94.3704116,36.409407 M57.9186558,36.3562941 C59.7401302,36.9043969 61.5482442,37.7947216 61.5482442,39.8453157 L61.5482442,39.8869299 C61.5482442,42.1707825 59.7640677,43.4756064 56.7757808,43.4679742 C55.0494996,43.4635602 53.6633531,42.8875322 52.1452722,41.8312983 C52.1040774,41.8050156 52.0762432,41.759021 52.0762432,41.7070032 C52.0762432,41.6719597 52.0890469,41.6402015 52.1096443,41.6144664 L53.4267618,39.6246509 C53.4534827,39.5835843 53.4996876,39.5567541 53.5525727,39.5567541 C53.5831904,39.5567541 53.6115813,39.5660625 53.6355188,39.5813941 L53.6449824,39.5879647 C54.9058747,40.3956086 55.8611468,40.7695888 57.0034651,40.7849203 C57.7772577,40.7953239 58.1947717,40.5582325 58.2404199,40.1289492 L58.2404199,40.0878826 C58.2326263,39.5397799 57.7499801,39.2944752 56.5781575,38.9429448 C56.4261824,38.9024257 56.2697538,38.8608115 56.1116552,38.8170071 C54.1794004,38.3055905 52.458686,37.4727591 52.458686,35.3526255 L52.458686,35.3115589 C52.458686,33.1667853 54.2250486,31.8597711 56.9555901,31.8597711 C58.3461901,31.8597711 59.5992888,32.2447024 60.8596244,32.9006735 C60.9074993,32.9253135 60.9397871,32.975141 60.9397871,33.0315392 C60.9397871,33.0556316 60.9342202,33.0780814 60.9236432,33.0977934 L59.7267697,35.1368888 C59.7028323,35.1872639 59.6510605,35.2217598 59.5903818,35.2217598 C59.5658877,35.2217598 59.5430636,35.2151892 59.5224662,35.2053332 L59.5113325,35.1998576 C58.3901683,34.6501122 57.6692607,34.4163062 56.8871178,34.4086404 C56.2235489,34.4020698 55.7308824,34.6785851 55.7308824,35.114439 L55.7308824,35.1555057 C55.7308824,35.6707551 56.4183888,35.8968954 57.5306461,36.2374747 C57.6575704,36.2758035 57.787278,36.3152275 57.9186558,36.3562941 M42.1527704,43.3255763 L39.1583599,43.3255763 C39.0748571,43.3255763 39.0069415,43.2593221 39.0069415,43.1766413 L39.0069415,32.379401 C39.0069415,32.2967201 39.0748571,32.230466 39.1583599,32.230466 L42.0486702,32.230466 C42.132173,32.230466 42.2000886,32.2967201 42.2000886,32.379401 L42.2000886,33.7291245 C42.9382534,32.7051963 44.0677679,32.0870065 45.2518376,32.0870065 C45.4143897,32.0870065 45.5685916,32.1028856 45.6687949,32.1149318 C45.7445042,32.1253354 45.8007294,32.1877567 45.8007294,32.2627717 L45.8007294,35.1719323 C45.8007294,35.2146416 45.7823588,35.2557083 45.750071,35.2836336 C45.7172266,35.3115589 45.6743618,35.3257953 45.6309403,35.3197722 C45.5552311,35.3104638 45.3514843,35.2891091 45.1054294,35.2891091 C44.1607344,35.2891091 42.9850149,35.8065488 42.5185126,37.2597602 C42.3743311,37.7021847 42.3041888,38.2272901 42.3041888,38.8646444 L42.3041888,43.1766413 C42.3041888,43.2593221 42.2368298,43.3255763 42.1527704,43.3255763 M33.8008203,43.3255763 L30.8058531,43.3255763 C30.722907,43.3255763 30.6549914,43.2593221 30.6549914,43.1766413 L30.6549914,32.379401 C30.6549914,32.2967201 30.722907,32.230466 30.8058531,32.230466 L33.6961634,32.230466 C33.7802229,32.230466 33.8475818,32.2967201 33.8475818,32.379401 L33.8475818,33.7291245 C34.5863033,32.7051963 35.7158178,32.0870065 36.8993308,32.0870065 C37.0624396,32.0870065 37.2166415,32.1028856 37.3168448,32.1149318 C37.3919974,32.1253354 37.4487793,32.1883042 37.4487793,32.2627717 L37.4487793,35.1719323 C37.4487793,35.2146416 37.429852,35.2557083 37.3975642,35.2836336 C37.3652765,35.3115589 37.3229684,35.3252478 37.2789902,35.3203198 C37.2027243,35.3104638 36.9984208,35.2891091 36.7534793,35.2891091 C35.8087843,35.2891091 34.6325082,35.8065488 34.1660058,37.2597602 C34.0218243,37.7021847 33.9522387,38.2272901 33.9522387,38.8646444 L33.9522387,43.1766413 C33.9522387,43.2593221 33.8843231,43.3255763 33.8008203,43.3255763 M15.0444212,43.3255763 L12.0149396,43.3255763 C11.9314368,43.3255763 11.8640779,43.2593221 11.8640779,43.1766413 C11.8640779,39.7735859 11.598539,35.9111318 11.5066859,34.7256749 C10.4211495,36.1438427 9.392395,38.0580956 8.587428,39.9049992 C8.56404722,39.9592071 8.50949205,39.9947982 8.44881335,39.9947982 L6.74702628,39.9947982 C6.68634758,39.9947982 6.63179241,39.9592071 6.60785494,39.9049992 C5.80344463,38.0580956 4.77469013,36.1438427 3.68859704,34.7256749 C3.59730064,35.9111318 3.33176174,39.7741335 3.33176174,43.1766413 C3.33176174,43.2593221 3.26440281,43.3255763 3.18034333,43.3255763 L0.151418412,43.3255763 C0.0673589257,43.3255763 0,43.2593221 0,43.1766413 C0,38.5651317 0.342918167,32.5168373 1.11003056,29.3996058 C1.12617444,29.332804 1.18685314,29.2857143 1.25699549,29.2857143 L3.65408255,29.2857143 C3.697504,29.2857143 3.73869872,29.3037836 3.76764636,29.3355418 C5.31356154,31.0554126 6.62511219,32.9559766 7.59764147,34.8505174 C8.57128413,32.9548815 9.88172141,31.054865 11.4281933,29.3355418 C11.4571409,29.3037836 11.4977789,29.2857143 11.5412004,29.2857143 L13.9388441,29.2857143 C14.0089865,29.2857143 14.0696652,29.332804 14.0858091,29.3996058 C14.8523648,32.5157422 15.1958396,38.5645841 15.1958396,43.1766413 C15.1958396,43.2593221 15.127924,43.3255763 15.0444212,43.3255763 M87.0199384,43.3255763 L84.0461254,43.3255763 C83.9626226,43.3255763 83.8952636,43.2593221 83.8952636,43.1766413 L83.8952636,36.8145978 C83.8952636,35.476373 83.5378716,35.0021902 82.5313846,35.0021902 C81.3339544,35.0021902 80.3586417,35.7331764 79.9862192,36.9093249 C79.8676452,37.2586651 79.8136467,37.6704265 79.8136467,38.2086733 L79.8136467,43.1766413 C79.8136467,43.2593221 79.7457311,43.3255763 79.6622283,43.3255763 L76.6678179,43.3255763 C76.5843151,43.3255763 76.5163995,43.2593221 76.5163995,43.1766413 L76.5163995,32.379401 C76.5163995,32.2967201 76.5843151,32.230466 76.6678179,32.230466 L79.5581282,32.230466 C79.641631,32.230466 79.7089899,32.2967201 79.7089899,32.379401 L79.7089899,33.4569895 C80.3051999,32.7982807 81.3979732,31.9846137 83.1565422,31.9846137 C85.8208382,31.9846137 87.1708001,33.4307069 87.1708001,36.2812791 L87.1708001,43.1766413 C87.1708001,43.2593221 87.1034412,43.3255763 87.0199384,43.3255763 M68.9015008,43.5714286 C65.3771259,43.5714286 62.7195101,41.0806001 62.7195101,37.7782949 C62.7195101,34.4754422 65.3676623,31.9851613 68.8803467,31.9851613 C72.4047216,31.9851613 75.0623374,34.4754422 75.0623374,37.7782949 C75.0623374,41.0806001 72.4136286,43.5714286 68.9015008,43.5714286 M68.9015008,34.8384712 C67.2804331,34.8384712 66.0579521,36.101681 66.0579521,37.7782949 C66.0579521,39.4543613 67.2804331,40.7181186 68.9015008,40.7181186 C70.5103214,40.7181186 71.7238954,39.4543613 71.7238954,37.7782949 C71.7238954,36.101681 70.5103214,34.8384712 68.9015008,34.8384712 M50.5114007,43.3255763 L47.5169903,43.3255763 C47.4340441,43.3255763 47.3661285,43.2593221 47.3661285,43.1766413 L47.3661285,32.379401 C47.3661285,32.2967201 47.4340441,32.230466 47.5169903,32.230466 L50.5114007,32.230466 C50.5954602,32.230466 50.6628191,32.2967201 50.6628191,32.379401 L50.6628191,43.1766413 C50.6628191,43.2593221 50.5954602,43.3255763 50.5114007,43.3255763 M22.8870042,43.5714286 C19.3626294,43.5714286 16.7050136,41.0806001 16.7050136,37.7782949 C16.7050136,34.4754422 19.3537224,31.9851613 22.8658502,31.9851613 C26.3902251,31.9851613 29.0478409,34.4754422 29.0478409,37.7782949 C29.0478409,41.0806001 26.399132,43.5714286 22.8870042,43.5714286 M22.8870042,34.8384712 C21.2659365,34.8384712 20.0434555,36.101681 20.0434555,37.7782949 C20.0434555,39.4543613 21.2659365,40.7181186 22.8870042,40.7181186 C24.4958249,40.7181186 25.7093989,39.4543613 25.7093989,37.7782949 C25.7093989,36.101681 24.4958249,34.8384712 22.8870042,34.8384712" id="Fill-5"></path>
            </g>
        </g>
    </g>
</svg>