<?xml version="1.0" encoding="UTF-8"?>
<svg width="176px" height="100px" viewBox="0 0 176 100" version="1.1" xmlns="http://www.w3.org/2000/svg" xmlns:xlink="http://www.w3.org/1999/xlink">
    <!-- Generator: Sketch 56 (81588) - https://sketch.com -->
    <title>Logo / Huawei /1440</title>
    <desc>Created with Sketch.</desc>
    <defs>
        <polygon id="path-1" points="0 57.2276102 57.2545408 57.2276102 57.2545408 0.521781151 0 0.521781151"></polygon>
        <polygon id="path-3" points="0.162933173 0.521781151 12.1292559 0.521781151 12.1292559 31.7489716 0.162933173 31.7489716"></polygon>
        <path d="M6.11998796,1.04131808 C1.59451831,2.20606827 0.525147481,6.30064767 0.525147481,6.30064767 L0.525147481,6.30064767 C-0.302969701,8.87813434 0.545345462,11.7058516 0.545345462,11.7058516 L0.545345462,11.7058516 C2.05794975,18.3868945 9.49305063,29.3667409 11.0886911,31.6693106 L11.0886911,31.6693106 C11.1997799,31.7826437 11.2906709,31.7411257 11.2906709,31.7411257 L11.2906709,31.7411257 C11.4623537,31.6917528 11.4522547,31.5290469 11.4522547,31.5290469 L11.4522547,31.5290469 L11.4533768,31.5312911 C13.9119198,7.01879807 8.87140168,0.521781151 8.87140168,0.521781151 L8.87140168,0.521781151 C8.12968697,0.585741422 6.11998796,1.04131808 6.11998796,1.04131808 L6.11998796,1.04131808 Z" id="path-5"></path>
        <polygon id="path-7" points="0.258368729 0.521781151 12.2219089 0.521781151 12.2219089 31.751613 0.258368729 31.751613"></polygon>
    </defs>
    <g id="Logo-/-Huawei-/1440" stroke="none" stroke-width="1" fill="none" fill-rule="evenodd">
        <g id="Logo-/-Huawei" transform="translate(3.000000, -2.000000)">
            <rect id="Rectangle-Copy-15" fill-opacity="0.1" fill="#D8D8D8" opacity="0" x="0" y="0" width="176" height="100"></rect>
            <g id="Group-73" transform="translate(56.000000, 23.000000)">
                <polygon id="Fill-1" fill="#D4D8D4" points="7.07939201 48.3493636 7.07939201 52.1218974 2.79405391 52.1218974 2.79405391 48.3493636 0.896565893 48.3493636 0.896565893 57.7021505 2.79405391 57.7021505 2.79405391 53.9038081 7.07939201 53.9038081 7.07939201 57.7021505 8.97688003 57.7021505 8.97688003 48.3493636"></polygon>
                <g id="Group-12" transform="translate(0.000000, 0.613794)">
                    <path d="M17.7689485,53.0881464 C17.7689485,54.6086054 17.0137685,55.4210131 15.6436722,55.4210131 C14.264599,55.4210131 13.5049305,54.5861632 13.5049305,53.023064 L13.5049305,47.7412922 L11.6074425,47.7412922 L11.6074425,53.0881464 C11.6074425,55.7183722 13.0706739,57.2276102 15.6178637,57.2276102 C18.1908619,57.2276102 19.6664365,55.6903195 19.6664365,53.0107208 L19.6664365,47.7356816 L17.7689485,47.7356816 L17.7689485,53.0881464 Z" id="Fill-2" fill="#D4D8D4"></path>
                    <polygon id="Fill-4" fill="#D4D8D4" points="39.6993542 54.1663819 37.5752 47.7344473 36.0278103 47.7344473 33.9047782 54.1663819 31.8378515 47.7389358 29.8180535 47.7389358 33.0789052 57.0883563 34.6487371 57.0883563 36.7773798 50.9470483 38.901534 57.0883563 40.4870754 57.0883563 43.7389502 47.7389358 41.7707693 47.7389358"></polygon>
                    <polygon id="Fill-6" fill="#D4D8D4" points="47.1399534 53.0628989 50.5915638 53.0628989 50.5915638 51.3595359 47.1399534 51.3595359 47.1399534 49.4452162 52.1501746 49.4452162 52.1501746 47.7418532 45.268274 47.7418532 45.268274 57.0822969 52.3297122 57.0822969 52.3297122 55.3778118 47.1399534 55.3778118"></polygon>
                    <mask id="mask-2" fill="white">
                        <use xlink:href="#path-1"></use>
                    </mask>
                    <g id="Clip-9"></g>
                    <polygon id="Fill-8" fill="#D4D8D4" mask="url(#mask-2)" points="54.594018 57.0750032 56.4656975 57.0750032 56.4656975 47.7345595 54.594018 47.7345595"></polygon>
                    <path d="M25.5524646,50.1020994 L26.9057292,53.2327863 L26.9012408,53.2327863 L26.9921317,53.4482315 L24.1240185,53.4482315 L24.2137873,53.2327863 L24.210421,53.2327863 L25.5524646,50.1020994 Z M27.6968168,55.1347628 L28.5372772,57.0827458 L30.5256561,57.0827458 L26.444542,47.7883086 L26.4075124,47.7355694 L24.7479117,47.7355694 L20.6286459,57.0827458 L22.5654077,57.0827458 L23.3598616,55.2716602 L23.4170892,55.1347628 L27.6968168,55.1347628 Z" id="Fill-10" fill="#D4D8D4" mask="url(#mask-2)"></path>
                    <path d="M24.7777598,33.1026939 C24.7777598,33.1026939 24.8776276,33.0263905 24.8248884,32.8962257 L24.8260106,32.8962257 C18.2897198,18.6667487 9.34986939,7.87878318 9.34986939,7.87878318 C9.34986939,7.87878318 4.48776675,12.4816784 4.83337663,17.0890621 C5.01852478,20.57658 7.64987274,22.6412624 7.64987274,22.6412624 C11.8925707,26.7594061 22.1621214,31.9592638 24.5488494,33.1408457 C24.5813906,33.1531889 24.7048227,33.1935848 24.7777598,33.1026939" id="Fill-11" fill="#D4D8D4" mask="url(#mask-2)"></path>
                </g>
                <path d="M23.1887398,37.2384548 C23.1460997,37.0847257 22.9688063,37.0847257 22.9688063,37.0847257 L22.9688063,37.0791152 L5.87346039,37.6749556 C7.72830822,40.9694705 10.8511404,43.5267592 14.101893,42.7424043 C16.3472352,42.1835936 21.4326377,38.648947 23.1101921,37.4527778 L23.1057037,37.4494115 C23.2347464,37.332712 23.1887398,37.2384548 23.1887398,37.2384548" id="Fill-20" fill="#D4D8D4"></path>
                <path d="M23.4462641,35.7076723 C23.5293002,35.5763854 23.3823038,35.4551976 23.3823038,35.4551976 L23.3834259,35.4518312 C15.8753879,30.4034583 1.32274327,22.6541666 1.32274327,22.6541666 C0.000897688003,26.7375249 1.78280837,30.0264294 1.78280837,30.0264294 C3.6365341,33.9324943 7.17791327,35.1174424 7.17791327,35.1174424 C8.81394965,35.7850979 10.4477418,35.8311044 10.4477418,35.8311044 C10.7058271,35.8771109 20.6163027,35.8344707 23.2712149,35.8243717 C23.3834259,35.8221275 23.4462641,35.7076723 23.4462641,35.7076723" id="Fill-29" fill="#D4D8D4"></path>
                <g id="Group-38" transform="translate(15.709540, 0.613794)">
                    <mask id="mask-4" fill="white">
                        <use xlink:href="#path-3"></use>
                    </mask>
                    <g id="Clip-37"></g>
                    <path d="M8.87207495,0.520995674 C8.12811602,0.586078055 6.11953911,1.04165472 6.11953911,1.04165472 C1.59406947,2.20528279 0.525820747,6.3009843 0.525820747,6.3009843 C-0.302296435,8.87734887 0.546018728,11.7061882 0.546018728,11.7061882 C2.0575009,18.3872311 9.49147967,29.3648333 11.0893643,31.6707694 C11.2004532,31.7829804 11.2913441,31.7414623 11.2913441,31.7414623 C11.4630269,31.6932116 11.4506837,31.5305056 11.4506837,31.5305056 L11.452928,31.5327498 C13.9125931,7.01801259 8.87207495,0.520995674 8.87207495,0.520995674" id="Fill-36" fill="#D4D8D4" mask="url(#mask-4)"></path>
                </g>
                <g id="Group-43" transform="translate(15.709540, 0.613794)">
                    <mask id="mask-6" fill="white">
                        <use xlink:href="#path-5"></use>
                    </mask>
                    <g id="Clip-40"></g>
                </g>
                <g id="Group-46" transform="translate(29.174860, 0.613794)">
                    <mask id="mask-8" fill="white">
                        <use xlink:href="#path-7"></use>
                    </mask>
                    <g id="Clip-45"></g>
                    <path d="M1.06768767,31.7363006 C1.23151573,31.8002609 1.31567398,31.6431655 1.31567398,31.6431655 L1.31679609,31.6442876 C2.95732091,29.2800018 10.3486595,18.3607493 11.8500427,11.7043928 C11.8500427,11.7043928 12.6669388,8.48169288 11.8792175,6.30143314 C11.8792175,6.30143314 10.761596,2.14401558 6.22939368,1.04322567 C6.22939368,1.04322567 4.92213553,0.715569549 3.53745178,0.521444518 C3.53745178,0.521444518 -1.52999699,7.02182777 0.934156578,31.5500303 L0.936400798,31.5500303 C0.953232448,31.7037594 1.06768767,31.7363006 1.06768767,31.7363006" id="Fill-44" fill="#D4D8D4" mask="url(#mask-8)"></path>
                </g>
                <path d="M34.2893253,37.096059 C34.2893253,37.096059 34.1378404,37.116257 34.0952002,37.2262238 C34.0952002,37.2262238 34.0615369,37.3799528 34.1625268,37.4562563 L34.1602826,37.4573784 C35.7974411,38.6266171 40.7582894,42.0849601 43.1495058,42.7559819 C43.1495058,42.7559819 47.568375,44.2596093 51.4059913,37.6851668 L34.2893253,37.0915706 L34.2893253,37.096059 Z" id="Fill-52" fill="#D4D8D4"></path>
                <path d="M55.9568206,22.619269 C55.9568206,22.619269 41.4243739,30.3910029 33.9118475,35.4427421 L33.9129696,35.4449864 C33.9129696,35.4449864 33.7783164,35.533633 33.825445,35.6929727 C33.825445,35.6929727 33.8950158,35.8197711 34.0016163,35.8197711 L34.0016163,35.8208932 C36.6901918,35.8276259 46.8733401,35.8366027 47.1314254,35.7905962 C47.1314254,35.7905962 48.4465383,35.7389792 50.0747199,35.1173302 C50.0747199,35.1173302 53.696891,33.9694117 55.5753032,29.8680996 C55.5753032,29.8680996 57.2551019,26.5253339 55.9568206,22.619269" id="Fill-59" fill="#D4D8D4"></path>
                <path d="M32.5382726,33.7164881 C32.5382726,33.7164881 32.6560942,33.8040127 32.7705494,33.7310755 L32.7705494,33.7333198 C35.2178713,32.5203188 45.4088743,27.3530023 49.628008,23.2550565 C49.628008,23.2550565 52.3019961,21.1129486 52.4411377,17.6792919 C52.7519622,12.9080802 47.934744,8.49257735 47.934744,8.49257735 C47.934744,8.49257735 39.0184579,19.2457575 32.4877777,33.4449375 L32.491144,33.4449375 C32.491144,33.4449375 32.4148405,33.6076434 32.5382726,33.7164881" id="Fill-66" fill="#D4D8D4"></path>
            </g>
        </g>
    </g>
</svg>