<?xml version="1.0" encoding="UTF-8"?>
<svg width="176px" height="100px" viewBox="0 0 176 100" version="1.1" xmlns="http://www.w3.org/2000/svg" xmlns:xlink="http://www.w3.org/1999/xlink">
    <!-- Generator: Sketch 56 (81588) - https://sketch.com -->
    <title>Logo / Ikea /1440</title>
    <desc>Created with Sketch.</desc>
    <g id="Logo-/-Ikea-/1440" stroke="none" stroke-width="1" fill="none" fill-rule="evenodd">
        <g id="Logo-/-Ikea">
            <rect id="Rectangle-Copy-13" fill-opacity="0.1" fill="#D8D8D8" opacity="0" x="0" y="0" width="176" height="100"></rect>
            <g id="Group-9" transform="translate(39.000000, 34.000000)" fill="#D4D8D4">
                <path d="M0,33 L0,0.733333333 L90.6315789,0.733333333 L90.6315789,33 L0,33 Z M90.6315789,17.2333333 C90.6315789,8.93058661 70.5074451,2.2 45.6842105,2.2 C20.8604253,2.2 0.736842105,8.93058661 0.736842105,17.2333333 C0.736842105,25.5360801 20.8604253,32.2666667 45.6842105,32.2666667 C70.5074451,32.2666667 90.6315789,25.5360801 90.6315789,17.2333333 Z" id="Combined-Shape"></path>
                <path d="M12.5263158,23.4666667 C12.9670822,23.2315216 12.9365757,22.4193054 12.9381536,22.3130925 C12.9407835,22.1114584 12.9439393,12.1870852 12.9381536,11.783817 C12.929738,11.2237854 12.5989002,11 12.5989002,11 L20.5589945,11.001136 C20.5589945,11.001136 20.2171112,11.2135617 20.2171112,11.7968806 C20.2171112,12.1382386 20.2197411,21.9325436 20.2197411,22.5374459 C20.2197411,22.6879615 20.2797022,23.2582168 20.6315789,23.4666667 L12.5263158,23.4666667 Z" id="Fill-4"></path>
                <path d="M32.5421218,23.4666667 C32.1165366,23.1667982 32.1341318,22.5346891 32.1319324,22.3915701 C32.1302829,22.2893422 32.1313826,20.4730935 32.1308327,18.359816 C32.1308327,18.359816 34.455606,22.1428156 34.6727975,22.6942782 C34.911983,23.2991265 34.6403562,23.4666667 34.6403562,23.4666667 L44.2105263,23.4666667 C44.2105263,23.4666667 44.1126527,23.4019223 43.9685915,23.2889037 C43.7343547,23.1037577 43.4478819,22.8868074 43.1152216,22.4250781 C42.775963,21.9553978 39.2734072,16.0812701 39.2734072,16.0812701 C39.2734072,16.0812701 41.9104964,12.2812326 42.3223353,11.7286341 C42.6841378,11.2424837 43.0717833,11.0232617 43.0717833,11.0005444 C43.0717833,10.9988406 42.4938891,11.0016803 42.4938891,11.0016803 L34.8756928,11.0005444 C34.8756928,11.0005444 35.3315199,11.332785 34.9301281,11.9353616 C34.5248873,12.5441854 32.133582,15.9625722 32.133582,15.9625722 C32.133582,13.8617892 32.1324823,11.9325219 32.1346817,11.7848594 C32.1434793,11.2248778 32.4975839,11.0011123 32.4975839,11.0011123 L24.3911192,11.0011123 C24.3911192,11.0011123 24.7369759,11.2248778 24.7457736,11.7848594 C24.7523718,12.1880916 24.7485228,22.1115793 24.7457736,22.3131954 C24.744124,22.4193988 24.7760154,23.2315425 24.3157895,23.4666667 L32.5421218,23.4666667 Z" id="Fill-5"></path>
                <path d="M45.7603155,11 C45.7603155,11 46.1066481,11.2243534 46.1160233,11.783817 C46.1220897,12.1870852 46.1187808,22.1114584 46.1160233,22.3130925 C46.1143689,22.4193054 46.146355,23.2315216 45.6842105,23.4666667 L59.683659,23.4666667 L59.6842105,19.2329187 C59.6842105,19.2329187 59.3439442,19.6390268 58.7351047,19.6390268 L53.2803659,19.6390268 L53.2792629,18.644488 L57.2141089,18.645056 C57.4534534,18.645056 58.1108236,18.7228697 58.2795781,18.952335 L58.2845414,15.1491184 C58.1080662,15.4041429 57.4446297,15.4620772 57.2245871,15.4620772 L53.2781599,15.4620772 L53.2781599,14.4675384 C53.2781599,14.4675384 57.8444563,14.4720823 58.4097285,14.4675384 C59.1658146,14.4624265 59.6825561,15.027002 59.6825561,15.027002 L59.6825561,11 L45.7603155,11 Z" id="Fill-6"></path>
                <path d="M70.8290289,18.7367553 C70.8290289,18.7367553 69.959206,16.536889 69.9265392,16.4522132 C69.8169117,16.1896613 69.8025161,15.8117458 69.8025161,15.8117458 L69.7903353,15.8117458 C69.7903353,15.8117458 69.7759397,16.1896613 69.6663121,16.4522132 C69.6336453,16.536889 68.7643761,18.7367553 68.7643761,18.7367553 L70.8290289,18.7367553 Z M72.011678,23.4666667 C72.011678,23.4666667 72.3831937,23.0410144 72.2519728,22.5255717 C72.1141078,21.9834192 71.6623093,21.0008388 71.6623093,21.0008388 L68.0573336,21.0008388 C68.0573336,21.0008388 67.6055351,21.9834192 67.4676701,22.5255717 C67.3364492,23.0410144 67.7079649,23.4666667 67.7079649,23.4666667 L60.4210526,23.4666667 C60.4210526,23.4666667 60.8302182,23.1080731 61.09266,22.50284 C61.3545481,21.8976068 64.8222125,12.3883424 64.9578628,12.0462294 C65.2197509,11.3841668 64.7884384,11 64.7884384,11 L76.3862615,11 C76.3862615,11 75.9754349,11.3898497 76.1935827,12.0627099 C76.4122842,12.7350017 80.1163677,22.1601586 80.2830238,22.50284 C80.6107992,23.1757001 81.0526316,23.4666667 81.0526316,23.4666667 L72.011678,23.4666667 Z" id="Fill-7"></path>
                <path d="M95.0526316,2.72371036 C95.4837523,2.72371036 95.868072,2.69261398 95.868072,2.17286007 C95.868072,1.75361413 95.4914608,1.67587317 95.1374242,1.67587317 L94.4447678,1.67587317 L94.4447678,2.72371036 L95.0526316,2.72371036 Z M94.4447678,4.62503234 L93.9371135,4.62503234 L93.9371135,1.24107903 L95.2145083,1.24107903 C96.0068235,1.24107903 96.3994022,1.53593942 96.3994022,2.20340117 C96.3994022,2.80867014 96.0222404,3.07298943 95.5300029,3.13462691 L96.4841948,4.62503234 L95.9143225,4.62503234 L95.0295063,3.1579492 L94.4447678,3.1579492 L94.4447678,4.62503234 Z M95.06034,5.37745386 C96.376277,5.37745386 97.4152615,4.33794605 97.4152615,2.92528159 C97.4152615,1.53593942 96.376277,0.488657517 95.06034,0.488657517 C93.7289862,0.488657517 92.6905523,1.53593942 92.6905523,2.92528159 C92.6905523,4.33794605 93.7289862,5.37745386 95.06034,5.37745386 L95.06034,5.37745386 Z M92.1052632,2.92528159 C92.1052632,1.24107903 93.4597422,0 95.06034,0 C96.645521,0 98,1.24107903 98,2.92528159 C98,4.62503234 96.645521,5.86666667 95.06034,5.86666667 C93.4597422,5.86666667 92.1052632,4.62503234 92.1052632,2.92528159 L92.1052632,2.92528159 Z" id="Fill-8"></path>
            </g>
        </g>
    </g>
</svg>