<?xml version="1.0" encoding="UTF-8"?>
<svg width="176px" height="100px" viewBox="0 0 176 100" version="1.1" xmlns="http://www.w3.org/2000/svg" xmlns:xlink="http://www.w3.org/1999/xlink">
    <!-- Generator: Sketch 56 (81588) - https://sketch.com -->
    <title>Logo / Renault</title>
    <desc>Created with Sketch.</desc>
    <g id="Logo-/-Renault" stroke="none" stroke-width="1" fill="none" fill-rule="evenodd">
        <g>
            <rect id="Rectangle-Copy-4" fill-opacity="0.1" fill="#D8D8D8" opacity="0" x="0" y="0" width="176" height="100"></rect>
            <g id="Group-32" transform="translate(28.000000, 28.000000)" fill="#D4D8D4">
                <path d="M45.4969302,31.5868426 C46.9897323,31.5868426 47.618722,32.1517257 47.618722,33.4760251 C47.618722,34.7884143 46.9897323,35.3532975 45.4969302,35.3532975 L43.8397521,35.3532975 L43.8397521,37.717186 L43.1213062,37.717186 L43.1213062,32.160233 L43.0296135,32.0428326 L42.7623628,31.9220293 L42.8233049,31.5868426 L45.4969302,31.5868426 Z M43.8397521,34.761191 L45.4426973,34.761191 C46.4686494,34.761191 46.8930077,34.3868709 46.8930077,33.4760251 C46.8930077,32.5623436 46.4686494,32.1891578 45.4426973,32.1891578 L43.8397521,32.1891578 L43.8397521,34.761191 Z" id="Fill-1"></path>
                <path d="M51.2313031,37.2611393 C50.961816,37.6456682 50.4658926,37.8260225 49.7547149,37.8260225 C48.6119106,37.8260225 48.0891503,37.4154046 48.0891503,36.5221405 C48.0891503,35.6271751 48.6292428,35.2341389 49.8553533,35.2341389 C50.3216443,35.2341389 50.7622166,35.3004956 51.1329012,35.4264033 L51.1329012,34.8053721 C51.1329012,34.0510603 50.7515937,33.7499027 49.8268391,33.7499027 C49.3879441,33.7499027 48.9283623,33.8213638 48.4771671,33.967689 L48.4771671,33.3857913 C48.9283623,33.2479734 49.3957715,33.1731094 49.9073498,33.1731094 C51.2547854,33.1731094 51.8250693,33.6767401 51.8250693,34.8615202 L51.8250693,37.0960981 C51.8250693,37.1692607 51.8328968,37.196484 51.8960753,37.2237073 L52.1666806,37.3428091 L52.0934383,37.7171293 L51.3481554,37.7171293 C51.2939225,37.7171293 51.274354,37.7171293 51.2648492,37.6456682 L51.2313031,37.2611393 Z M51.1329012,35.9283326 C50.7873762,35.7922162 50.3937684,35.7292624 49.9615827,35.7292624 C49.1413801,35.7292624 48.8014462,35.9493173 48.8014462,36.5142004 C48.8014462,37.0535617 49.1329936,37.2963027 49.8894585,37.2963027 C50.7515937,37.2963027 51.1329012,36.9951451 51.1329012,36.3298761 L51.1329012,35.9283326 Z" id="Fill-3"></path>
                <path d="M54.6514413,33.1748108 C55.1373009,33.1748108 55.6399335,33.2377647 56.081624,33.3738811 L55.9653308,33.9427343 C55.5499181,33.8043493 55.1473647,33.7379925 54.7056742,33.7379925 C53.9849919,33.7379925 53.6528853,33.9847035 53.6528853,34.4406936 C53.6528853,35.6186678 56.2700414,34.6709572 56.2700414,36.5142004 C56.2700414,37.3972557 55.7114986,37.8260225 54.5060748,37.8260225 C53.9503275,37.8260225 53.437072,37.7528599 52.9774902,37.6099376 L52.9774902,37.0144283 C53.453845,37.1794694 53.9503275,37.2611393 54.4524011,37.2611393 C55.1904156,37.2611393 55.5420907,37.005921 55.5420907,36.5221405 C55.5420907,35.3073015 52.915989,36.2572807 52.915989,34.4509023 C52.915989,33.6018761 53.464468,33.1748108 54.6514413,33.1748108" id="Fill-4"></path>
                <path d="M58.7622382,33.1748108 C59.2475386,33.1748108 59.7512895,33.2377647 60.19298,33.3738811 L60.0755686,33.9427343 C59.6607149,33.8043493 59.2542479,33.7379925 58.8164711,33.7379925 C58.0957887,33.7379925 57.7620048,33.9847035 57.7620048,34.4406936 C57.7620048,35.6186678 60.3808382,34.6709572 60.3808382,36.5142004 C60.3808382,37.3972557 59.8228545,37.8260225 58.6174308,37.8260225 C58.0600062,37.8260225 57.5461915,37.7528599 57.0905234,37.6099376 L57.0905234,37.0144283 C57.5640828,37.1794694 58.0600062,37.2611393 58.5648752,37.2611393 C59.3017715,37.2611393 59.6517693,37.005921 59.6517693,36.5221405 C59.6517693,35.3073015 57.0267858,36.2572807 57.0267858,34.4509023 C57.0267858,33.6018761 57.5735875,33.1748108 58.7622382,33.1748108" id="Fill-5"></path>
                <path d="M61.2345309,33.2833637 L62.145867,33.2833637 C62.2096047,33.2833637 62.2252595,33.3020797 62.2252595,33.3735408 L62.2252595,37.716789 L61.5056954,37.716789 L61.5056954,33.904962 C61.5056954,33.8317994 61.4967497,33.8045761 61.432453,33.7773528 L61.163525,33.6576838 L61.2345309,33.2833637 Z M61.8467475,31.4679109 C62.1721448,31.4679109 62.3147158,31.6057287 62.3147158,31.9324081 C62.3147158,32.2539832 62.1721448,32.3900996 61.8467475,32.3900996 C61.5152001,32.3900996 61.3798974,32.2539832 61.3798974,31.9324081 C61.3798974,31.6057287 61.5152001,31.4679109 61.8467475,31.4679109 L61.8467475,31.4679109 Z" id="Fill-6"></path>
                <path d="M65.4747599,33.1748108 C66.9837759,33.1748108 67.6200339,33.8695717 67.6200339,35.4995659 C67.6200339,37.1420374 66.9837759,37.8260225 65.4747599,37.8260225 C63.9618301,37.8260225 63.3143901,37.1420374 63.3143901,35.4995659 C63.3143901,33.8695717 63.9618301,33.1748108 65.4747599,33.1748108 M65.4747599,37.2424233 C66.4710795,37.2424233 66.8842558,36.7416283 66.8842558,35.4995659 C66.8842558,34.2586378 66.4710795,33.75841 65.4747599,33.75841 C64.4650218,33.75841 64.0518455,34.2586378 64.0518455,35.4995659 C64.0518455,36.7416283 64.4650218,37.2424233 65.4747599,37.2424233" id="Fill-7"></path>
                <path d="M72.490818,37.0960981 C72.490818,37.1692607 72.4992045,37.196484 72.5601466,37.2237073 L72.8279564,37.3428091 L72.7558323,37.7171293 L71.8506463,37.7171293 C71.7857904,37.7171293 71.7678992,37.6984133 71.7678992,37.6252507 L71.7678992,34.9516973 C71.7678992,34.0952981 71.454243,33.777126 70.6703821,33.777126 C70.104571,33.777126 69.5655967,33.9659875 69.3732657,34.106074 L69.3732657,37.7171293 L68.6559379,37.7171293 L68.6559379,33.9047351 C68.6559379,33.8315726 68.6469923,33.8043493 68.5832547,33.777126 L68.3148858,33.6580241 L68.3870099,33.2831368 L69.2944323,33.2831368 C69.3570517,33.2831368 69.3732657,33.30242 69.3732657,33.3738811 L69.3732657,33.6852474 C69.6729443,33.3483593 70.1498582,33.1731094 70.7978574,33.1731094 C72.0021629,33.1731094 72.490818,33.6852474 72.490818,34.935817 L72.490818,37.0960981 Z" id="Fill-8"></path>
                <path d="M76.93333,33.2833637 L78.2455422,33.2833637 L78.2455422,33.8590227 L76.93333,33.8590227 L76.93333,37.716789 L76.2025838,37.716789 L76.2025838,33.9662144 C76.2025838,33.8669628 76.2025838,33.8590227 76.1148048,33.8317994 L75.6021083,33.6854743 L75.6641686,33.2833637 L76.2025838,33.2833637 L76.2025838,32.6997645 C76.2025838,31.632952 76.6599291,31.1871707 77.7423504,31.1871707 C78.0996166,31.1871707 78.3892313,31.2393487 78.5591983,31.3062726 L78.4434642,31.8694543 C78.2606379,31.8065005 78.0274924,31.7707699 77.8211838,31.7707699 C77.1933123,31.7707699 76.93333,32.032794 76.93333,32.6708398 L76.93333,33.2833637 Z" id="Fill-9"></path>
                <path d="M80.8434651,33.1748108 C82.3558358,33.1748108 82.9920938,33.8695717 82.9920938,35.4995659 C82.9920938,37.1420374 82.3558358,37.8260225 80.8434651,37.8260225 C79.3333308,37.8260225 78.6858908,37.1420374 78.6858908,35.4995659 C78.6858908,33.8695717 79.3333308,33.1748108 80.8434651,33.1748108 M80.8434651,37.2424233 C81.8409029,37.2424233 82.2551974,36.7416283 82.2551974,35.4995659 C82.2551974,34.2586378 81.8409029,33.75841 80.8434651,33.75841 C79.8359635,33.75841 79.4233462,34.2586378 79.4233462,35.4995659 C79.4233462,36.7416283 79.8359635,37.2424233 80.8434651,37.2424233" id="Fill-10"></path>
                <path d="M84.0285569,33.9047919 C84.0285569,33.8316293 84.0184931,33.804406 83.9558737,33.7771827 L83.6863865,33.6575137 L83.7585107,33.2854621 L84.6664922,33.2854621 C84.7279934,33.2854621 84.7470029,33.3024767 84.7470029,33.3733706 L84.7470029,33.8214205 C85.0791094,33.3943553 85.5118543,33.1748675 86.1676808,33.1748675 C86.3225521,33.1748675 86.4914008,33.1833748 86.590921,33.2020908 L86.4645639,33.8214205 C86.3583346,33.7958987 86.2213546,33.7771827 86.058656,33.7771827 C85.4296663,33.7771827 85.060659,34.013685 84.7470029,34.279112 L84.7470029,37.717186 L84.0285569,37.717186 L84.0285569,33.9047919 Z" id="Fill-11"></path>
                <path d="M89.8775457,37.0960981 C89.8775457,37.1692607 89.8859322,37.196484 89.9479925,37.2237073 L90.2180387,37.3428091 L90.1464737,37.7171293 L89.2379331,37.7171293 C89.1758728,37.7171293 89.1557451,37.6984133 89.1557451,37.6252507 L89.1557451,31.9151667 C89.1557451,31.8420042 89.1490359,31.8164823 89.0852983,31.7875576 L88.8169293,31.6684557 L88.8890535,31.2941356 L89.7953577,31.2941356 C89.8590953,31.2941356 89.8775457,31.3128516 89.8775457,31.3860141 L89.8775457,37.0960981 Z" id="Fill-12"></path>
                <path d="M91.2480163,33.2833637 L92.1582342,33.2833637 C92.2197354,33.2833637 92.2381858,33.3020797 92.2381858,33.3735408 L92.2381858,37.716789 L91.5180625,37.716789 L91.5180625,33.904962 C91.5180625,33.8317994 91.5102351,33.8045761 91.4464975,33.7773528 L91.1758921,33.6576838 L91.2480163,33.2833637 Z M91.860792,31.4679109 C92.1828347,31.4679109 92.327083,31.6057287 92.327083,31.9324081 C92.327083,32.2539832 92.1828347,32.3900996 91.860792,32.3900996 C91.5258899,32.3900996 91.3905873,32.2539832 91.3905873,31.9324081 C91.3905873,31.6057287 91.5258899,31.4679109 91.860792,31.4679109 L91.860792,31.4679109 Z" id="Fill-13"></path>
                <path d="M94.6583143,33.2833637 L95.9710856,33.2833637 L95.9710856,33.8590227 L94.6583143,33.8590227 L94.6583143,37.716789 L93.9309227,37.716789 L93.9309227,33.9662144 C93.9309227,33.8669628 93.9309227,33.8590227 93.8403482,33.8317994 L93.3276518,33.6854743 L93.3885939,33.2833637 L93.9309227,33.2833637 L93.9309227,32.6997645 C93.9309227,31.632952 94.3893863,31.1871707 95.4656575,31.1871707 C95.8285146,31.1871707 96.1170112,31.2393487 96.2864191,31.3062726 L96.170685,31.8694543 C95.9889769,31.8065005 95.7580678,31.7707699 95.5495228,31.7707699 C94.9210922,31.7707699 94.6583143,32.032794 94.6583143,32.6708398 L94.6583143,33.2833637 Z" id="Fill-14"></path>
                <path d="M98.4896161,33.1748108 C99.8197196,33.1748108 100.378821,33.8485871 100.378821,35.4264033 C100.378821,35.5284906 100.378821,35.6271751 100.369876,35.7105464 L97.1220528,35.7105464 C97.1600718,36.8170595 97.6375448,37.2509306 98.8133361,37.2509306 C99.2813044,37.2509306 99.7392089,37.1794694 100.207177,37.0331443 L100.207177,37.6167435 C99.767164,37.7630686 99.2924865,37.8260225 98.7602214,37.8260225 C97.1142254,37.8260225 96.4119934,37.1420374 96.4119934,35.4995659 C96.4119934,33.8695717 97.0331556,33.1748108 98.4896161,33.1748108 M97.1220528,35.2188258 L99.684976,35.2188258 C99.6670847,34.1412374 99.328269,33.7039634 98.4896161,33.7039634 C97.5547977,33.7039634 97.150567,34.1599534 97.1220528,35.2188258" id="Fill-15"></path>
                <polygon id="Fill-16" points="119.881806 17.298418 119.881806 19.0815431 116.221925 19.0815431 116.221925 26.9207148 113.750135 26.9207148 113.750135 19.0815431 110.09305 19.0815431 110.09305 17.298418"></polygon>
                <polygon id="Fill-17" points="111.148019 25.1394046 111.148019 26.9208283 103.30326 26.9208283 103.30326 17.2985314 105.770018 17.2985314 105.770018 25.1394046"></polygon>
                <polygon id="Fill-18" points="63.646217 25.1394046 63.646217 26.9208283 55.4067321 26.9208283 55.4067321 17.2985314 63.4891094 17.2985314 63.4891094 19.0810894 57.874608 19.0810894 57.874608 21.1954312 63.0049271 21.1954312 63.0049271 22.921274 57.874608 22.921274 57.874608 25.1394046"></polygon>
                <path d="M73.9764636,17.2967732 L73.9764636,23.6800664 C73.4011477,22.9467391 72.7950812,22.236098 71.7758384,21.0983915 C70.9444539,20.1705312 69.2123562,18.2739757 68.3205886,17.2984747 L65.9399326,17.2984747 L65.8420898,17.8798052 C65.8420898,17.8798052 65.9416099,18.0533537 66.0606987,18.2603641 C66.1926467,18.4900605 66.2178063,18.5972522 66.2228382,18.7231599 L66.2228382,26.9207716 L68.438,26.9133986 L68.438,20.5408813 C68.8802496,21.1386593 69.666906,22.056878 70.1930209,22.6348057 C71.2391006,23.7844223 72.8196817,25.5743533 74.0519423,26.9207716 L76.1832388,26.9207716 L76.1832388,17.2984747 L73.9764636,17.2967732 Z" id="Fill-19"></path>
                <path d="M98.1385001,17.298418 L98.1385001,23.1831847 C98.1385001,23.8371107 98.0082294,24.230714 97.6940141,24.5301701 C97.2953744,24.9073261 96.6339569,25.086546 95.6806881,25.086546 C94.71456,25.086546 94.0380467,24.9073261 93.6388479,24.5301701 C93.3246326,24.230714 93.1960392,23.8371107 93.1960392,23.1831847 L93.1960392,17.298418 L90.4497306,17.298418 L90.3485331,17.8797485 C90.3485331,17.8797485 90.4497306,18.0544313 90.5660238,18.2591731 C90.6912626,18.4809294 90.720895,18.5886882 90.7281633,18.7083573 L90.7281633,23.273929 C90.7281633,25.7903814 92.4093828,27.0687415 95.6488193,27.0687415 L95.7175888,27.0687415 C98.9592617,27.0687415 100.552702,25.8261119 100.552702,23.273929 L100.552702,17.298418 L98.1385001,17.298418 Z" id="Fill-20"></path>
                <path d="M85.236832,17.298418 L82.1528259,17.298418 C81.2168893,19.2590616 79.5899027,22.8718184 78.0674682,26.9207148 L80.5454079,26.9207148 C80.7405344,26.3762491 80.9524341,25.8164704 81.1609791,25.2549901 L86.2264424,25.2549901 C86.4372239,25.8164704 86.6468871,26.3762491 86.8453683,26.9207148 L89.3205124,26.9207148 C87.7969597,22.8718184 86.169414,19.2590616 85.236832,17.298418 L85.236832,17.298418 Z M81.8693612,23.4406716 C82.5207149,21.8010358 83.168155,20.2504429 83.6931517,19.0480812 C84.2181484,20.2504429 84.868943,21.8010358 85.5186194,23.4406716 L81.8693612,23.4406716 Z" id="Fill-21"></path>
                <path d="M50.9861369,23.3482259 C52.0439577,22.7651938 52.6969888,21.6212487 52.6969888,20.418887 C52.6969888,19.4201327 52.4084922,18.6442691 51.8057803,18.1326982 C51.1046665,17.5428604 50.1435703,17.298418 48.5216157,17.298418 L42.8601497,17.298418 L42.7600704,17.8786142 C42.7600704,17.8786142 42.8601497,18.053297 42.9775611,18.2603074 C43.1536782,18.565435 43.1402597,18.6573136 43.1402597,18.8603539 L43.1402597,26.9207148 L45.6070174,26.9207148 L45.6070174,23.8410807 L48.6736914,23.8410807 L50.3213647,26.9207148 L53.0363636,26.9207148 L50.9861369,23.3482259 Z M49.7382214,21.7840213 C49.5503632,21.9740171 49.3250451,22.0636271 48.9744882,22.0636271 L45.6070174,22.0636271 L45.6070174,19.1303182 L48.2666652,19.1303182 C49.0594717,19.1303182 49.4804755,19.2221968 49.7656174,19.4569976 C50.0462866,19.6838583 50.1804711,20.0281194 50.1804711,20.5374217 C50.1804711,21.0660072 50.042932,21.4896695 49.7382214,21.7840213 L49.7382214,21.7840213 Z" id="Fill-22"></path>
                <path d="M17.2511055,31.4758177 L22.4213734,22.2135392 L17.2628168,12.9690835 L12.0864144,22.2135392 L17.2511055,31.4758177 Z M11.7562668,22.2135392 L17.2511055,32.0762228 L22.7520787,22.2135392 L24.9214609,22.2135392 L34.0484811,22.2074127 L22.1503401,0.833437975 L12.2570651,0.833437975 L0.347770366,22.2074127 L9.75753527,22.2135392 L16.5551186,34.0901975 L13.1593942,41.7629063 L13.7020186,41.7629063 C14.1024341,41.0678177 24.9214609,22.2135392 24.9214609,22.2135392 L18.0117835,10.277843 C19.1321662,7.74088101 20.3055287,5.20893165 21.3840853,2.64690633 L20.8593067,2.64690633 L9.76924658,22.2135392 L11.7562668,22.2135392 Z M-0.000223072717,22.2074127 L12.0273002,0.539362025 L22.3806627,0.539362025 L34.3842056,22.2074127 L22.245146,43.9996658 L21.4666222,43.9996658 L12.8883609,43.9996658 L12.1511055,43.9996658 L-0.000223072717,22.2074127 Z" id="Fill-29"></path>
            </g>
        </g>
    </g>
</svg>