<?xml version="1.0" encoding="UTF-8"?>
<svg width="176px" height="100px" viewBox="0 0 176 100" version="1.1" xmlns="http://www.w3.org/2000/svg" xmlns:xlink="http://www.w3.org/1999/xlink">
    <!-- Generator: Sketch 56 (81588) - https://sketch.com -->
    <title>Logo / Ireland.com /1440</title>
    <desc>Created with Sketch.</desc>
    <g id="Logo-/-Ireland.com-/1440" stroke="none" stroke-width="1" fill="none" fill-rule="evenodd">
        <g id="Logo-/-Ireland.com">
            <rect id="Rectangle-Copy-11" fill-opacity="0.1" fill="#D8D8D8" opacity="0" x="0" y="0" width="176" height="100"></rect>
            <g id="Group-15" transform="translate(26.000000, 41.000000)" fill="#D4D8D4">
                <path d="M25.2587845,2.3966464 C25.2008141,5.0465848 25.1625423,7.69931378 25.1625423,10.3509265 C25.1625423,13.1359292 25.2008141,14.019428 25.297619,15.7886582 L25.1816782,15.902514 C23.5737024,15.902514 23.1853568,15.902514 21.7321564,15.96 L21.6359142,15.8455861 C21.7130205,13.8458537 21.7524179,12.6743666 21.7524179,10.4089707 C21.7524179,5.50814736 21.6944474,4.52809432 21.577381,2.45357431 L21.6556129,2.33692791 C23.0508429,2.35702011 23.4960332,2.35702011 25.1625423,2.28 L25.2587845,2.3966464 Z" id="Fill-1"></path>
                <path d="M32.8011978,8.77698473 C32.543702,8.62018236 32.3584764,8.50511874 32.0453059,8.50511874 C30.7920885,8.50511874 30.7920885,9.7860475 30.7920885,10.6614334 C30.7920885,12.0010221 30.9029027,14.1939992 30.9762435,15.7676633 L30.8847013,15.9024682 C29.4098556,15.8827269 29.1148865,15.9024682 27.7519256,15.96 L27.6400407,15.8443723 C27.6780495,14.2323537 27.6957155,12.6400763 27.6957155,11.0472349 C27.6957155,8.34888041 27.6400407,7.47405852 27.5297619,6.0182782 L27.6400407,5.90152248 C28.9858709,5.68831637 29.3354442,5.6313486 30.700011,5.32 L30.8477633,5.47511026 L30.7920885,7.26198049 C31.3825621,5.82424936 32.2299962,5.37809584 32.9858881,5.37809584 C33.1149036,5.37809584 33.2439191,5.39783715 33.371864,5.39783715 L33.4821429,5.53320611 L32.9676867,8.69745547 L32.8011978,8.77698473 Z" id="Fill-3"></path>
                <path d="M40.7267411,9.37261613 C40.7267411,8.93081682 40.7062651,8.46949355 40.4326834,8.04833386 C40.217117,7.70080738 39.8257985,7.37615183 39.1790993,7.37615183 C38.9060864,7.37615183 38.6313672,7.43305023 38.3958935,7.58701059 C37.6525022,8.04833386 37.515427,8.85383664 37.4562742,9.44959631 L40.7267411,9.37261613 Z M43.5262607,12.9460585 L43.3897542,15.1137758 L43.2720174,15.2688518 C42.2339997,15.6721611 41.5292852,15.96 39.903721,15.96 C38.4942919,15.96 35.8318475,15.7290595 34.6954314,13.1373933 C34.3826041,12.4652113 34.2261905,11.5235986 34.2261905,10.6210339 C34.2261905,7.29861382 36.2618428,5.32 39.3372192,5.32 C39.7865529,5.32 40.237593,5.35849009 40.7267411,5.49348432 C41.39221,5.64577121 42.9000374,6.10821013 43.5854135,8.37466289 C43.8601327,9.33579952 43.8789023,10.2952627 43.8988095,11.2352018 L43.7810727,11.3690804 L37.4562742,11.4856664 C37.5341966,11.8700094 37.5939182,12.2532369 37.887407,12.6559883 C38.3566479,13.3482521 39.1608984,13.7125134 40.3354226,13.7125134 C41.7647588,13.7125134 42.6457941,13.2712719 43.3897542,12.8869288 L43.5262607,12.9460585 Z" id="Fill-4"></path>
                <path d="M48.988086,15.1432239 C47.5351299,15.1239311 46.9982181,15.1432239 45.6654747,15.2 L45.5458399,15.067155 C45.6255964,13.1891351 45.6654747,12.0508577 45.6654747,10.0019583 C45.6654747,8.88187126 45.6654747,7.76178422 45.6464025,6.64169719 C45.6059463,3.56862375 45.5857182,2.94133092 45.3869048,0.625087942 L45.4660834,0.512638259 L48.8690291,0 L49.0083141,0.132844968 C48.9285576,2.18119311 48.9077515,3.03669266 48.9077515,4.83809248 C48.9077515,10.8354089 49.0083141,12.8275322 49.1071429,15.0114814 L48.988086,15.1432239 Z" id="Fill-5"></path>
                <path d="M56.3688297,10.7271856 C55.1149824,10.900998 53.6564473,11.1116966 53.6564473,12.3820359 C53.6564473,13.1896208 54.2104977,13.5551297 54.8743938,13.5551297 C55.4830991,13.5551297 55.9814231,13.2863074 56.3688297,13.055489 L56.3688297,10.7271856 Z M59.3941381,11.4201996 C59.3941381,13.2270659 59.3941381,13.7088224 59.5238095,15.594491 L59.4311106,15.7291816 C58.2313823,15.7090619 57.8262932,15.7291816 56.4974294,15.7861876 L56.387048,15.6520559 L56.387048,14.9400399 C56.0001772,15.2681038 55.2066097,15.96 53.8230911,15.96 C52.0157292,15.96 50.5952381,14.6315369 50.5952381,12.5731737 C50.5952381,11.7085828 50.9451365,10.611497 51.9782209,9.93916168 C53.0852502,9.22602794 54.1188704,9.01532934 56.3323931,8.70682635 C56.3323931,8.419002 56.2766666,8.07193613 56.0923403,7.87912176 C55.8522875,7.62874251 55.5763339,7.51417166 54.8926121,7.51417166 C53.6564473,7.51417166 52.4583265,8.01381238 51.8126488,8.28207585 L51.6647591,8.20606786 L51.7574581,6.10858283 L51.8683753,5.95489022 C52.9191422,5.62682635 53.8970359,5.32 55.4830991,5.32 C57.8445115,5.32 58.5823524,6.09013972 58.9515408,6.70658683 C59.4311106,7.51417166 59.4311106,8.2647505 59.4128923,9.99616766 L59.3941381,11.4201996 Z" id="Fill-6"></path>
                <path d="M70.5499092,15.9001136 C69.0046459,15.9001136 68.6765229,15.9198874 67.4021714,15.96 L67.2860664,15.8419222 C67.2860664,15.1820422 67.3062585,14.5006935 67.3062585,13.8379886 C67.3062585,13.1018383 67.2860664,10.4357649 67.2479256,9.79396379 C67.1901535,9.09284129 67.0936797,7.94483088 66.0313462,7.94483088 C65.4132409,7.94483088 64.9499424,8.27646578 64.5449768,8.55047417 C64.5634863,12.0289683 64.5825567,12.7877173 64.6986618,15.7848606 L64.5825567,15.9001136 C63.0384152,15.9001136 62.7484329,15.9001136 61.3579764,15.96 L61.2429931,15.8419222 C61.2615026,14.5961727 61.2811339,13.353248 61.2811339,12.1086285 C61.2811339,8.93747571 61.1650289,7.71262996 61.0119048,6.01999257 L61.1268881,5.88383582 C62.5751167,5.6894876 62.9032397,5.63129613 64.39017,5.32 L64.5825567,5.45728668 L64.5449768,6.52563691 C65.4328722,6.0013487 66.456504,5.37819147 67.6349425,5.37819147 C68.3287685,5.37819147 69.4303646,5.53355705 70.0282777,6.54597568 C70.5106466,7.34257739 70.5302779,8.23861307 70.5499092,10.1052599 L70.5499092,11.6227579 C70.5886109,13.5289524 70.5886109,14.0730144 70.6845238,15.7848606 L70.5499092,15.9001136 Z" id="Fill-7"></path>
                <path d="M77.9941937,7.5269844 C75.8910946,7.5269844 75.4775669,9.2217149 75.4775669,10.737872 C75.4775669,11.1333663 75.4775669,13.5755869 77.2997072,13.5755869 C77.8245273,13.5755869 78.201503,13.3386337 78.5762966,13.1022528 C78.6330339,10.7178397 78.6510371,10.2067305 78.6330339,7.58593653 C78.3695327,7.54587197 78.201503,7.5269844 77.9941937,7.5269844 L77.9941937,7.5269844 Z M81.7317635,15.7230468 C80.3236964,15.7230468 79.9663605,15.7230468 78.6706769,15.7819989 L78.5762966,15.664667 L78.6139396,14.8965724 C78.16386,15.3115266 77.4682825,15.96 76.1355014,15.96 C75.51521,15.96 74.5015762,15.8020312 73.6745209,15.0923163 C72.5665069,14.1279053 72.172619,12.5911436 72.172619,11.0538096 C72.172619,9.0231092 72.7170789,7.38962023 74.0307657,6.32447552 C75.4595638,5.14257127 77.2249668,5.18034642 78.6330339,5.22155568 C78.6510371,2.97622378 78.6330339,2.4834298 78.5206504,0.6307305 L78.6139396,0.512826251 L81.7126692,0 L81.8452381,0.117331899 C81.7694065,2.720383 81.6941205,4.86784293 81.6941205,10.068794 C81.6941205,12.6495234 81.7503122,13.8325724 81.8255983,15.6062873 L81.7317635,15.7230468 Z" id="Fill-8"></path>
                <path d="M121.45849,5.32 C119.831446,5.32 118.799977,5.70188189 117.838542,6.47017839 C117.223918,5.73701049 116.245675,5.32 115.009704,5.32 C113.378738,5.32 113.006714,5.72681186 112.073853,6.27923745 L112.073853,5.5777986 L109.375,5.5777986 L109.375,15.96 L112.073853,15.96 L112.073853,7.76880345 C112.741143,7.76880345 112.918751,7.7484062 113.960306,7.7484062 C115.108313,7.7484062 115.85236,8.22150913 115.85236,9.66178178 L115.85236,15.96 L118.551774,15.96 L118.551774,7.7659705 C119.063867,7.76143778 119.583244,7.7484062 120.409092,7.7484062 C121.556539,7.7484062 122.300586,8.22150913 122.300586,9.66178178 L122.300586,15.96 L125,15.96 L125,8.5869599 C125,6.56649875 123.609953,5.32 121.45849,5.32" id="Fill-9"></path>
                <polygon id="Fill-10" points="85.5654762 15.96 85.5654762 12.92 82.5892857 13.5755901 82.5892857 15.96"></polygon>
                <path d="M105.154765,11.0966322 C105.154765,12.6703676 104.369829,13.81098 102.689504,13.81098 C101.008619,13.81098 100.202377,12.6703676 100.202377,11.0966322 L100.202377,10.1833678 C100.202377,8.60963244 100.987314,7.46846686 102.667638,7.46846686 C104.348524,7.46846686 105.154765,8.60963244 105.154765,10.1833678 L105.154765,11.0966322 Z M102.667638,5.32 C99.2856838,5.32 97.4702381,7.30805095 97.4702381,10.1833678 L97.4702381,11.0966322 C97.4702381,13.9713959 99.2856838,15.96 102.689504,15.96 C106.071459,15.96 107.886905,13.9713959 107.886905,11.0966322 L107.886905,10.1833678 C107.886905,7.30805095 106.071459,5.32 102.667638,5.32 L102.667638,5.32 Z" id="Fill-11"></path>
                <path d="M92.9209031,13.81098 C91.3172692,13.81098 90.4041928,12.6698144 90.4041928,11.0966322 L90.4041928,10.1828147 C90.4041928,8.60963244 91.2974778,7.46846686 92.9005768,7.46846686 C94.0827086,7.46846686 94.7764755,7.81806291 95.3686111,8.3568391 L95.9821429,6.54137354 C95.3686111,5.89362516 94.0998254,5.32 92.7561535,5.32 C89.5296292,5.32 87.797619,7.30805095 87.797619,10.1828147 L87.797619,11.0966322 C87.797619,13.9713959 89.5296292,15.96 92.7764798,15.96 C94.1634787,15.96 95.3263539,15.4151391 95.9821429,14.7380733 L95.3686111,12.9231609 C94.692496,13.4918076 94.0367071,13.81098 92.9209031,13.81098" id="Fill-12"></path>
                <path d="M9.5613376,9.12361061 C9.49057217,8.81648142 9.54096574,8.46109717 9.39460995,8.18803036 C9.5586571,8.05461934 9.69589916,7.88771364 9.92427852,7.9109896 C10.1086975,7.6560894 10.4453695,7.70547986 10.6131693,7.45341819 L10.7150287,7.56071471 C11.0029153,7.51756902 11.1755401,7.39153819 11.4114249,7.21100753 C11.8252955,7.10087248 12.3608612,6.92658659 12.4648649,6.40145811 C13.1178369,5.70204374 13.2363154,4.82720808 13.3928571,3.88538305 C13.2893895,3.59358193 13.3387109,3.24330704 13.0926401,3.00997968 C13.186458,2.84988646 13.0095444,2.68184534 12.9264486,2.58590295 C12.6149734,2.13400861 12.2520325,1.69857775 11.8022431,1.29720927 C11.7062809,1.03549659 11.3551342,0.997460261 11.1755401,0.735179873 C10.6464076,0.422941317 10.0534791,0.049958169 9.45411725,0.102187164 L9.42677605,0 C9.16623058,0.0431456914 8.93731511,0.0431456914 8.66175879,0.137384965 C8.33795331,0.0726664276 8.04309732,0.262280387 7.70642539,0.247520019 C7.07221696,0.496743158 6.38600667,0.691466475 5.85258538,1.14960559 C5.34436087,1.34830286 4.9937503,1.83709812 4.69728601,2.2736644 C4.47694817,2.39742441 4.43566833,2.71817856 4.3659751,2.97307876 C4.40939934,2.98102665 4.47694817,2.94412573 4.49946444,3.00997968 C4.51233089,3.0463129 4.48391749,3.06277638 4.47105105,3.07583363 C4.43566833,3.07583363 4.38795527,3.09116171 4.3659751,3.0463129 L4.3659751,3.46244174 C4.37348052,3.72415442 4.51233089,3.97280985 4.60078768,4.16412693 C4.84149739,4.99297837 5.46176717,5.66968447 5.92174251,6.40145811 L4.00196198,6.40145811 C3.09326943,6.60469702 2.16366892,6.6552229 1.33110283,7.17410661 C0.84217799,7.51756902 0.361294678,8.10855145 0.173122948,8.78525756 C0.0364169897,9.74979084 -0.136207789,10.8931517 0.173122948,11.8264611 C0.181700577,12.0013147 0.298034666,12.2198817 0.202072445,12.3521573 L0.269621271,12.3521573 C0.758010008,13.9406 1.71709612,15.8736405 3.4106417,16.3743576 C4.43566833,16.6144974 5.30415324,15.9525517 5.85258538,15.1872834 C6.08203695,15.035138 6.17746307,14.6962173 6.38600667,14.5594 C6.29540546,14.2028804 6.66049078,14.122266 6.71356486,13.8230847 C7.34241227,13.3348572 7.32793752,12.3964384 8.00181748,11.8996952 C8.09188258,11.9297837 8.2157221,11.8412215 8.27147668,11.9734971 C8.22966074,13.1679515 7.87905017,14.2250209 7.53969773,15.2951476 C7.19766478,16.5355862 6.48089668,17.79703 5.35722732,18.6491574 C5.36526884,18.8410422 5.06880455,18.8682921 5.13260067,19 L5.52341887,18.8614796 C5.87349335,18.8109537 6.13511102,18.3295387 6.41817277,18.0962113 L6.48089668,18.0962113 C7.87208084,16.5441018 8.95125376,14.8585813 9.49057217,12.9493845 C9.66105254,12.1761683 9.72967357,11.1122864 9.5586571,10.3243098 C9.58492608,10.1545656 9.40854859,9.97630572 9.42677605,9.83097287 L9.5613376,9.12361061 Z M6.68086265,12.6348751 C5.75769536,13.2474304 4.60882921,14.122266 3.47872662,13.3723258 C2.98229636,12.98515 2.54108458,12.4600215 2.38507896,11.863362 C2.77589717,11.5045715 3.29913252,11.4091968 3.80950143,11.4466655 C3.90010264,11.4466655 4.00196198,11.2865722 4.07165521,11.4466655 C4.31236492,11.3001972 4.53216665,11.4245249 4.80021755,11.3359627 L4.86079705,11.4091968 C5.42692055,11.3745668 6.12438899,11.4466655 6.68086265,11.6220868 C6.91299473,11.6220868 7.20892292,11.6430919 7.4110333,11.8264611 C7.34616498,12.1614079 6.93551101,12.4089279 6.68086265,12.6348751 L6.68086265,12.6348751 Z M8.07043851,10.5718298 C6.12438899,10.3152265 4.04270571,10.4917832 2.28750843,11.2366141 C2.25373402,10.8857715 2.18564909,10.5587726 2.35023234,10.2505079 C3.39348644,8.82840325 5.48910836,9.12815226 6.84598201,9.58856221 C7.01592628,9.65328075 7.17782902,9.75603562 7.37618668,9.7634158 C7.51289264,10.1840863 8.11118225,10.0467013 8.07043851,10.5718298 L8.07043851,10.5718298 Z M8.73198813,6.86243576 C8.50521707,6.86868053 8.32562296,6.6989363 8.20285565,6.54622326 C7.67265098,5.94104817 7.03576204,5.2853472 6.64655214,4.62056293 C6.57900331,4.19137684 6.24501189,3.775248 6.41817277,3.32278594 C6.70820384,2.7045536 7.3209682,2.44170551 7.87208084,2.2736644 C7.94659899,2.04885264 8.08437716,2.30261743 8.20285565,2.17147723 C8.7534322,2.04033704 9.31097807,1.69119756 9.92427852,1.92452492 C9.51737726,2.59555396 9.22734619,3.36763476 9.02845242,4.09600215 C8.90997392,4.10395004 8.95125376,4.24303813 8.89764358,4.30151189 C8.60117929,5.17464444 8.62852048,5.89790247 8.73198813,6.86243576 L8.73198813,6.86243576 Z M9.15818905,7.52665232 C8.94374834,7.0503466 8.87727171,6.56155133 8.95875919,6.05061551 C9.05632971,5.3381439 9.15229193,4.79825505 9.39460995,4.09600215 C9.6208449,3.74799809 9.68892983,3.3102964 9.8888958,2.93788096 L9.85512139,2.90211545 C10.074387,2.69717342 10.0936867,2.2736644 10.2202067,2.063613 C10.6657073,2.15047209 10.9423358,2.53594478 11.2452333,2.93788096 C11.4317968,3.44768137 11.2929464,3.93590893 11.106383,4.41051153 C10.5627758,5.61348153 10.0261379,6.86243576 9.35869113,7.97627585 C9.35279401,7.79290666 9.11047599,7.66233417 9.15818905,7.52665232 L9.15818905,7.52665232 Z" id="Fill-13"></path>
                <path d="M9.67261905,9.84170455 C9.70655119,10.0554744 9.92445915,10.0827523 10.09465,10.1128137 C10.5246339,9.97475402 11.0203612,9.89125017 11.2366786,9.39134047 C12.0950557,8.82629777 12.912078,8.15325676 13.8531647,7.81089099 C14.6712474,7.56817314 15.8694761,7.06826344 16.604319,7.84540591 C17.0745973,9.56948201 16.0868539,11.0970457 15.3573129,12.5138277 C14.8679478,13.0727467 14.5758133,14.0953905 13.6898663,13.9233726 C13.3627393,13.7513547 12.9698687,13.4518542 12.9412385,13.0293247 C12.9078365,12.8511832 12.6947003,12.8439462 12.8723138,12.6518874 C12.6469832,12.4442411 12.8468647,12.0584534 12.7758193,11.8307662 C12.8664817,11.3998863 13.0700746,11.0291293 13.4645357,10.7992153 C13.8860365,10.6416714 14.3844148,10.749113 14.7046494,11.0708812 C14.8679478,11.6147696 14.765091,12.2939342 14.3780525,12.7214739 L14.479849,12.7214739 C14.8064458,12.3724278 15.1945447,12.0077944 15.4257074,11.5568736 C15.3923054,11.4282777 15.475015,11.3419903 15.5206113,11.2428991 C15.5492416,11.1477047 15.6234681,10.9990679 15.5206113,10.9350483 C15.5089471,10.8838326 15.5624963,10.8715853 15.5911265,10.8348436 C15.5009943,10.7847413 15.4787263,10.6639391 15.5206113,10.5915691 C15.2210541,10.0554744 14.8064458,9.77657155 14.2810278,9.56001824 C12.9078365,9.05509831 11.6316699,9.89737379 10.6540002,10.8348436 C10.6126454,10.812576 10.6190076,10.7630303 10.6190076,10.7285154 C10.4138242,10.9133373 10.5246339,11.2863211 10.3252826,11.413247 C10.3682279,11.6921498 10.2918806,12.2015233 10.231439,12.4158498 C10.4090525,12.542219 10.2505258,12.8005242 10.3608053,12.9285634 C10.4604809,13.1005814 10.2844579,13.3577732 10.4546488,13.4718951 C10.6269605,14.1733275 11.2366786,14.6108876 11.7292248,15.1224879 C11.96728,15.3028562 12.2991788,15.3028562 12.484215,15.5338835 C12.6151718,15.8250336 12.912078,15.5171827 13.0700746,15.8100029 C13.4226507,15.8545382 13.8531647,16.0037318 14.2470957,15.9475059 C14.4437961,15.9536295 14.6898041,15.9051972 14.8679478,15.7743746 C15.2841467,15.6964376 15.6293002,15.4253285 15.9511253,15.0890863 C16.1001086,15.0400974 16.134571,14.8163071 16.2761316,14.7817922 C16.4076187,14.4377563 16.6997532,14.1794511 16.8635818,13.8515593 C16.7676175,13.6016044 17.1223144,13.5520588 17.1223144,13.3026607 C17.0926237,13.3137945 17.0745973,13.2854032 17.0592218,13.2737127 C17.4208112,12.6925259 17.7755081,11.9209504 18.1355069,11.2428991 C18.0952124,11.0920355 18.2452561,10.9350483 18.3337978,10.7992153 C18.661455,9.86341556 18.6524418,8.99163539 18.496566,8.01742384 C18.2251089,7.3104246 17.7755081,6.76653621 17.1578371,6.37406813 C16.011567,5.93650797 14.8143986,5.96545597 13.7243286,6.60843559 C13.6474511,6.60843559 13.5673925,6.59396159 13.5270981,6.6802489 L13.498998,6.64629067 C12.1581483,7.33825922 10.7817759,8.17496776 9.74101352,9.39134047 L9.67261905,9.84170455 Z" id="Fill-14"></path>
            </g>
        </g>
    </g>
</svg>