<?xml version="1.0" encoding="UTF-8"?>
<svg width="176px" height="100px" viewBox="0 0 176 100" version="1.1" xmlns="http://www.w3.org/2000/svg" xmlns:xlink="http://www.w3.org/1999/xlink">
    <!-- Generator: Sketch 56 (81588) - https://sketch.com -->
    <title>Logo / Google /1440</title>
    <desc>Created with Sketch.</desc>
    <g id="Logo-/-Google-/1440" stroke="none" stroke-width="1" fill="none" fill-rule="evenodd">
        <g id="Logo-/-Google">
            <rect id="Rectangle-Copy-6" fill-opacity="0.1" fill="#D8D8D8" opacity="0" x="0" y="0" width="176" height="100"></rect>
            <g id="Group-8" transform="translate(43.000000, 35.000000)" fill="#D4D8D4">
                <path d="M22.5559315,10.6580074 L11.8502755,10.6580074 L11.8502755,13.8448201 L19.4425884,13.8448201 C19.0676458,18.313969 15.3616515,20.2200999 11.8629202,20.2200999 C7.38724898,20.2200999 3.48113869,16.6869186 3.48113869,11.73517 C3.48113869,6.91137918 7.2047256,3.19618884 11.872816,3.19618884 C15.4743542,3.19618884 17.5964634,5.49943036 17.5964634,5.49943036 L19.8208296,3.18846725 C19.8208296,3.18846725 16.9664278,0 11.7590138,0 C5.1293468,0 0,5.6141512 0,11.6783611 C0,17.6201285 4.82477466,23.4146341 11.9283427,23.4146341 C18.1764699,23.4146341 22.75,19.1208757 22.75,12.7715183 C22.75,11.4318216 22.5559315,10.6580074 22.5559315,10.6580074 Z" id="Fill-1"></path>
                <path d="M30.8718481,10.9227321 C32.97589,10.9227321 34.9701512,12.6265096 34.9701512,15.3717528 C34.9701512,18.0585409 32.9844583,19.8111204 30.8622088,19.8111204 C28.5300371,19.8111204 26.6905401,17.9405582 26.6905401,15.3503014 C26.6905401,12.8158183 28.50701,10.9227321 30.8718481,10.9227321 M30.8290068,8.04878049 C26.5502349,8.04878049 23.483871,11.3989532 23.483871,15.3057897 C23.483871,19.2705451 26.4581262,22.6829268 30.8793453,22.6829268 C34.8823266,22.6829268 38.1612903,19.6196666 38.1612903,15.3910591 C38.1612903,10.5446511 34.3468107,8.04878049 30.8290068,8.04878049" id="Fill-3"></path>
                <path d="M47.0170094,10.9227321 C49.1210513,10.9227321 51.1153125,12.6265096 51.1153125,15.3717528 C51.1153125,18.0585409 49.1296196,19.8111204 47.0073701,19.8111204 C44.6751984,19.8111204 42.8357014,17.9405582 42.8357014,15.3503014 C42.8357014,12.8158183 44.6521713,10.9227321 47.0170094,10.9227321 M46.9741681,8.04878049 C42.6953962,8.04878049 39.6290323,11.3989532 39.6290323,15.3057897 C39.6290323,19.2705451 42.6032875,22.6829268 47.0245066,22.6829268 C51.0269523,22.6829268 54.3064516,19.6196666 54.3064516,15.3910591 C54.3064516,10.5446511 50.491972,8.04878049 46.9741681,8.04878049" id="Fill-4"></path>
                <path d="M63.7685537,11.649265 C65.684087,11.649265 67.650758,13.2957683 67.650758,16.1076956 C67.650758,18.9662827 65.6883485,20.5419917 63.7259389,20.5419917 C61.6431427,20.5419917 59.7052366,18.8391748 59.7052366,16.1350479 C59.7052366,13.3258022 61.7182512,11.649265 63.7685537,11.649265 M63.4856982,8.7804878 C59.5789904,8.7804878 56.5080645,12.2258093 56.5080645,16.0926786 C56.5080645,20.4974771 60.0679948,23.4182774 63.41858,23.4182774 C65.4896572,23.4182774 66.5912486,22.5901989 67.4046578,21.6398394 L67.4046578,23.0830772 C67.4046578,25.6075368 65.8817129,27.1194237 63.5837122,27.1194237 C61.3634834,27.1194237 60.2501728,25.4573672 59.8629112,24.5145161 L57.0695139,25.6901302 C58.0608397,27.7994779 60.055743,30 63.6066176,30 C67.4909527,30 70.4516129,27.5366809 70.4516129,22.3703076 L70.4516129,9.22027044 L67.4046578,9.22027044 L67.4046578,10.4597066 C66.4681985,9.44337968 65.1870924,8.7804878 63.4856982,8.7804878" id="Fill-5"></path>
                <path d="M84.2806406,10.8601137 C85.6697577,10.8601137 86.6693871,11.5704467 87.0939788,12.4216678 L80.2860235,15.1569322 C79.9923754,13.0393255 82.0796729,10.8601137 84.2806406,10.8601137 M84.1480253,8.04878049 C80.29271,8.04878049 77.0564516,10.9977876 77.0564516,15.3487114 C77.0564516,19.9524838 80.6638098,22.6829268 84.5180108,22.6829268 C87.7347669,22.6829268 89.7089513,20.9911985 90.886887,19.4751785 L88.2590987,17.7941641 C87.5770773,18.811451 86.4370317,19.8062387 84.5341698,19.8062387 C82.3967237,19.8062387 81.4138105,18.6812769 80.8053404,17.5911353 L91,13.5241304 L90.4706533,12.3327423 C89.4855113,9.99871433 87.1881468,8.04878049 84.1480253,8.04878049" id="Fill-6"></path>
                <polygon id="Fill-7" points="72.6532258 22.6829268 75.5887097 22.6829268 75.5887097 0.731707317 72.6532258 0.731707317"></polygon>
            </g>
        </g>
    </g>
</svg>