<?xml version="1.0" encoding="UTF-8"?>
<svg width="176px" height="100px" viewBox="0 0 176 100" version="1.1" xmlns="http://www.w3.org/2000/svg" xmlns:xlink="http://www.w3.org/1999/xlink">
    <!-- Generator: Sketch 56 (81588) - https://sketch.com -->
    <title>Logo / Airbus /1440</title>
    <desc>Created with Sketch.</desc>
    <g id="Logo-/-Airbus-/1440" stroke="none" stroke-width="1" fill="none" fill-rule="evenodd">
        <g id="Logo-/-Airbus">
            <rect id="Rectangle-Copy-14" fill-opacity="0.1" fill="#D8D8D8" opacity="0" x="0" y="0" width="176" height="100"></rect>
            <g id="Group-8" transform="translate(37.000000, 41.000000)" fill="#D4D8D4">
                <path d="M46.4897959,6.83033446 C46.4897959,3.34960028 44.2757359,0.703703704 39.7116172,0.703703704 L30.5306122,0.703703704 L30.5306122,19 L34.8510212,19 L34.8510212,4.65796136 L39.738817,4.65796136 C41.5481446,4.65796136 42.1954988,5.71665662 42.1954988,6.94142172 C42.1954988,8.19480021 41.5209449,9.22544313 39.7116172,9.22544313 L35.5266631,9.22544313 L41.4670893,19 L46.3815409,19 C46.3815409,19 42.3304095,12.4278981 42.3581533,12.4278981 C44.8692346,11.8157961 46.4897959,10.0052981 46.4897959,6.83033446" id="Fill-1"></path>
                <polygon id="Fill-3" points="23.5918367 19 27.755102 19 27.755102 0.703703704 23.5918367 0.703703704"></polygon>
                <polygon id="Fill-4" points="9.16071239 0.703703704 0 19 4.92218204 19 6.40572275 15.9366846 13.7821097 15.9366846 11.9493062 12.0940753 8.26772334 12.0940753 10.9924142 6.46789824 11.0475029 6.46789824 17.1728238 19 22.2040816 19 13.0433692 0.703703704"></polygon>
                <path d="M59.5180931,15.1569475 L53.6057346,15.1569475 L53.6057346,11.4255398 L59.5180931,11.4255398 C60.5758813,11.4255398 61.3894384,12.2048099 61.3894384,13.2634727 C61.3894384,14.3496253 60.5758813,15.1569475 59.5180931,15.1569475 L59.5180931,15.1569475 Z M53.6057346,4.57480773 L59.4099102,4.57480773 C60.2775588,4.57480773 60.9556141,5.27048439 60.9556141,6.19001186 C60.9556141,7.10841726 60.2775588,7.80521599 59.3825913,7.80521599 L53.6057346,7.80521599 L53.6057346,4.57480773 Z M63.0433252,9.50401352 C64.4267549,8.72362139 65.159448,7.47084236 65.159448,5.63234847 C65.159448,2.68133293 63.0165527,0.703703704 59.4099102,0.703703704 L49.2653061,0.703703704 L49.2653061,19 L59.8164156,19 C63.5050148,19 65.9183673,16.9673899 65.9183673,13.8761164 C65.9183673,11.7318619 64.7523963,10.1166578 63.0433252,9.50401352 L63.0433252,9.50401352 Z" id="Fill-5"></path>
                <path d="M80.1085261,10.3918996 C80.1085261,13.2156303 78.8340913,14.7803765 76.3125749,14.7803765 C73.8184117,14.7803765 72.5439769,13.2156303 72.5439769,10.3918996 L72.5439769,0 L68,0 L68,10.051911 C68,15.7997718 70.9647495,19 76.3125749,19 C81.6604003,19 84.6530612,15.7997718 84.6530612,10.051911 L84.6530612,0 L80.1085261,0 L80.1085261,10.3918996 Z" id="Fill-6"></path>
                <path d="M96.2868126,7.6274925 C92.11426,6.60155285 91.2050419,6.50376448 91.2050419,5.29733545 C91.2050419,4.36415505 92.2487335,3.91097582 94.0068501,3.91097582 C96.3421515,3.91097582 98.8279746,4.50217634 100.242437,5.38059526 L101.643618,1.66407858 C99.830162,0.693459208 97.1661476,0 94.0616356,0 C89.4198092,0 86.810027,2.33015705 86.810027,5.46385507 C86.810027,8.83671549 88.7590628,10.2063114 93.2376395,11.1780484 C96.7245432,11.9536498 97.468298,12.4381213 97.468298,13.4243862 C97.468298,14.4955885 96.506508,14.9778248 94.6117042,14.9778248 C91.8646815,14.9778248 89.3788584,14.3039233 87.3872116,13.2031057 L86.0408163,17.086142 C88.2106544,18.2506617 91.4524068,19 94.7212753,19 C99.2812001,19 102,16.8637433 102,13.2858067 C102,10.4147403 100.161089,8.57073113 96.2868126,7.6274925" id="Fill-7"></path>
            </g>
        </g>
    </g>
</svg>