<?xml version="1.0" encoding="UTF-8"?>
<svg width="176px" height="100px" viewBox="0 0 176 100" version="1.1" xmlns="http://www.w3.org/2000/svg" xmlns:xlink="http://www.w3.org/1999/xlink">
    <!-- Generator: Sketch 56 (81588) - https://sketch.com -->
    <title>Logo / Nestle / 1440</title>
    <desc>Created with Sketch.</desc>
    <g id="Logo-/-Nestle-/-1440" stroke="none" stroke-width="1" fill="none" fill-rule="evenodd">
        <g id="Logo-/-Nestle">
            <rect id="Rectangle-Copy-12" fill-opacity="0.1" fill="#D8D8D8" opacity="0" x="0" y="0" width="176" height="100"></rect>
            <g id="Group-26" transform="translate(61.000000, 23.000000)" fill="#D4D8D4">
                <path d="M32.2666667,5.13333333 C32.673516,5.13333333 33,4.80461933 33,4.39937268 C33,3.9966353 32.673516,3.66666667 32.2666667,3.66666667 C31.8617009,3.66666667 31.5333333,3.9966353 31.5333333,4.39937268 C31.5333333,4.80461933 31.8617009,5.13333333 32.2666667,5.13333333" id="Fill-1"></path>
                <path d="M24.2011151,5.13333333 C24.6032776,5.13333333 24.9333333,4.80848608 24.9333333,4.4 C24.9333333,3.99450102 24.6032776,3.66666667 24.2011151,3.66666667 C23.7967224,3.66666667 23.4666667,3.99450102 23.4666667,4.4 C23.4666667,4.80848608 23.7967224,5.13333333 24.2011151,5.13333333" id="Fill-3"></path>
                <path d="M17.1033586,17.6 L16.8666667,17.3321062 C17.5217434,16.683824 18.2146319,15.6499212 18.3261029,15.0434975 C18.4321723,14.4784089 19.1947916,14.5684045 19.0479641,15.1826767 C18.8633248,15.9690916 17.9617349,16.915615 17.1033586,17.6" id="Fill-4"></path>
                <path d="M12.1762874,4.79089976 C10.8048342,5.37789936 10.6020491,6.76912158 11.5651388,7.60319163 C12.7248687,8.60639716 14.6381996,7.7319778 14.4516149,6.19372931 C16.0096528,6.27221702 17.0124058,4.68311735 16.766047,3.5666021 C17.4570807,2.98015523 17.5263516,1.72822105 16.696776,1.23518561 C15.807985,0.708986341 14.9655607,0.908521986 14.4348558,1.92609851 C13.0092148,1.82218521 11.6461412,2.93151496 12.1762874,4.79089976 L11.5154202,4.50458545 C10.6445055,2.70379007 12.1695838,0.865961752 14.0371065,1.28824772 C14.4119517,0.396140979 15.807985,-0.531893229 17.3084833,0.365740811 C18.5078764,1.08484296 18.763732,2.94035865 17.4866884,3.84020361 C18.0883402,5.57411862 16.8900643,6.98855551 15.0644394,6.82494734 C14.848247,9.05300326 12.7248687,9.34042303 11.3550914,8.2824972 C10.5819382,7.68610118 10.2612807,6.85866389 10.1126833,6.23242044 C9.95738227,5.57411862 9.95570636,4.98159172 9.2981909,4.2995225 C8.8010042,3.78769423 7.91221313,3.80317068 7.91221313,3.80317068 C7.91221313,2.18753995 6.38490025,0.706222689 4.48497666,1.42256118 C3.8107021,0.847721651 2.98168516,0.795212271 2.3833852,1.50049616 C2.03814769,1.91393844 1.84653528,2.99342076 2.91520739,3.49198351 C2.85934371,4.96556254 3.9961695,5.9090732 5.65811384,5.77807611 C5.72459161,6.55797859 6.60165131,7.28924081 7.3798323,7.39204865 L7.37145275,7.78614537 C6.5407599,7.70710493 6.09273323,7.99563016 5.53912421,8.67327753 C3.58780604,8.58041884 2.21802872,9.44046722 2.27612694,10.8283731 C0.904673721,11.0837345 0.647142179,12.5075678 1.42532317,13.2642556 C2.20518008,14.0192852 3.34479905,13.7219163 3.73305159,12.8193077 C5.11958801,13.0807491 6.33909203,12.0985473 6.39663162,10.9671084 C7.68875842,10.9671084 8.25521609,10.4624656 8.46693942,9.28515 L8.9546293,9.32439385 C9.09819895,10.5912517 8.50492672,11.7928875 6.96308929,11.6486248 C6.92398471,13.1625532 5.4402455,14.0065724 4.05706091,13.4859004 C3.40960091,14.6831143 1.92753761,15.1667533 0.686805388,13.9944123 C-0.512587716,12.8624206 -0.07685105,10.9251009 1.49459413,10.4558328 C1.53090552,8.97230464 2.63812356,7.56560597 4.78887505,8.10617622 C4.78887505,8.10617622 5.06372433,7.44787441 5.73744025,7.40476145 C5.28829631,7.2234659 4.9492038,6.97805364 4.85702873,6.52260385 C3.23586488,6.86419119 1.85659074,5.38619031 2.22640827,3.89879302 C0.76389726,3.13657791 0.739317243,1.7072173 1.46666229,0.855459876 C2.21970463,-0.0283559073 3.4838996,-0.224575171 4.61234584,0.729990093 C6.51897307,-0.320197517 8.67698684,0.963242288 8.54626584,3.11391597 C9.88140767,3.0287955 10.6942241,4.18123822 10.5439509,5.38619031 C10.7634951,4.85667467 11.0232612,4.61236787 11.5154202,4.50458545 L12.1762874,4.79089976 Z" id="Fill-5"></path>
                <path d="M15.0882292,2.2 L15.4,2.42635101 C14.7958097,3.72786934 13.7304135,5.10520428 12.816065,5.86666667 L12.4666667,5.5969134 C13.1154725,4.52339427 14.5033901,2.74719808 15.0882292,2.2" id="Fill-6"></path>
                <path d="M5.67792672,9.53333333 L5.86666667,9.80673139 C5.17216265,10.4959223 3.88440572,11.412945 3.19924039,11.7333333 L2.93333333,11.4537648 C3.5963807,10.7674218 4.85956211,9.86179072 5.67792672,9.53333333" id="Fill-7"></path>
                <path d="M7.33333333,5.36773265 L6.97648903,5.86666667 C6.00783699,5.15021853 4.09770115,3.23480439 3.66666667,2.54180791 L3.96656217,2.2 C4.89184953,2.72238567 6.6985371,4.53226735 7.33333333,5.36773265" id="Fill-8"></path>
                <path d="M5.53936133,22.8108832 C5.65416881,23.3943153 5.55740251,24.0429415 6.08114326,24.6772028 C6.26210171,24.8993048 7.280608,26.249044 8.01482913,26.947947 C7.01545741,27.3490565 5.01562058,28.1672979 3.57615355,28.3501729 C3.28858817,28.3866374 2.96384703,28.5905072 2.69213601,28.75073 C2.51227097,29.0612308 2.3263922,29.6148283 2.24766708,30.2408023 C2.19081005,30.6921886 2.20065069,31.1905369 2.20065069,31.7004874 C2.20065069,32.1474539 2.43463925,33.5563097 2.93104489,34.5060443 C3.42745054,35.4519115 3.90800182,35.8784357 4.49133312,36.1546819 C4.6077807,36.1044051 4.86363735,36.0629682 5.2649168,36.0568907 C6.35121418,36.0325811 7.20297628,36.6397703 7.57692062,37.1613232 C7.72070331,37.3624305 8.0088154,37.4 8.38658666,37.4 C9.26459047,37.4 10.2284265,37.1093889 11.1436061,36.7541363 C11.3409656,36.5905985 11.8942283,36.2215335 12.4338234,35.7900369 C12.9772455,35.3607502 15.9961353,32.7701129 17.3317289,32.1170668 C18.0364281,32.504364 19.1894231,33.0005023 20.3861544,33.0005023 C20.4539454,33.0005023 20.6852005,33.0005023 20.9262962,32.947463 C21.2996938,32.8590642 21.7769649,32.6955264 22.3799775,32.5745306 C23.4569809,32.3634784 24.7193164,32.175631 25.0883404,32.1806034 C26.0762314,32.2004931 28.9786736,32.2739746 29.6675185,32.2739746 C30.3902589,32.2739746 31.4186058,32.2098855 31.8133248,32.1706585 C32.4179775,31.9695513 33.7727057,31.5894364 35.0694834,30.9844572 C36.3651678,30.4059975 39.087745,28.4910585 39.533854,28.0579044 C39.7508948,27.8617696 39.9449741,27.6462975 40.0871167,27.4545826 C40.1390534,27.3827586 40.158188,27.354029 40.158188,27.2932548 C40.158188,27.2324806 40.143427,25.361741 40.143427,25.361741 C40.143427,25.361741 40.7967362,24.631346 41.0427522,24.3777519 C41.0684472,24.3534422 41.0684472,24.3241601 41.065167,24.2976405 C40.9552798,23.9236031 40.8437526,22.7550814 40.9049832,21.5777199 L40.2473004,21.2666667 C40.2226988,22.7357442 39.6913042,23.9838248 39.1916184,24.7633917 C38.2130214,24.9202995 36.3405661,25.5053891 35.6681224,26.2799836 L36.0398799,26.3882721 C36.6702276,26.0330194 37.3497785,25.7915802 38.1228155,25.7915802 C38.8050999,25.7915802 39.1107065,25.9694828 39.1107065,26.1639601 C39.1107065,26.3009783 38.981138,26.6297113 38.9292013,26.7357899 C38.8696108,26.8518133 38.8340751,27.0004338 38.7159874,27.127507 C37.7942474,28.1396733 36.7467659,29.0037716 35.4756832,29.7198018 C34.6135337,30.2071002 33.8038677,30.5363857 32.5344251,30.8966108 C32.154467,31.0037944 31.6350999,31.1623597 31.2955978,31.2783832 C30.8172333,31.2640184 28.3204441,31.1905369 26.8651227,31.1905369 C25.404881,31.1905369 22.399112,31.4049039 21.4434765,31.6496581 C21.0104883,31.7590516 20.9022413,31.9358492 20.3976351,31.9358492 C19.4567605,31.9358492 18.2195733,31.4568382 17.4612973,31.0828008 C17.3525036,31.1137404 17.0775123,31.2363937 16.8047079,31.3750693 C16.2645661,31.6463432 15.0683816,33.3259203 14.3713362,32.8132073 C14.015433,33.5513373 12.4791997,34.2491353 11.9570991,35.0159949 C12.0134094,34.6154378 12.632823,32.0236955 12.6913202,31.5038001 C12.7022542,31.4109814 12.7104548,31.3374999 12.6525043,31.2397087 C12.0910411,30.2949465 10.5263793,29.6932822 9.64290843,29.5175896 C9.38267816,29.4684177 9.25474983,29.4291908 9.08199192,29.3877538 L7.68680778,28.9650971 L6.39440365,29.3877538 L7.88580739,29.6822323 L5.9936709,30.9485451 C6.32223896,30.8192619 8.36089165,30.2474322 8.51123477,30.2032328 C8.67961906,30.1512985 8.90103347,30.1021266 9.14540938,30.188868 C9.42313412,30.2866591 10.2109321,30.4695341 10.6778158,30.6330719 C10.9511669,30.7297581 11.4043831,31.2397087 11.520284,31.51264 C11.5689405,31.6264534 11.5853415,31.8673402 11.617597,32.393313 C11.6350914,32.726466 11.5498059,33.1855873 11.4732676,33.5469173 C11.2616938,34.4883646 10.8379995,35.2231796 10.7089778,35.4845085 C10.5241925,35.8458386 10.2672424,35.965177 10.0152127,36.0812004 C9.60299916,36.2789927 9.10003309,36.4044085 8.53856988,36.4110384 C8.1542382,36.4126959 7.89674144,36.3900437 7.72999725,36.1695992 C7.21445703,35.4651713 5.93845398,34.7756607 4.63566251,35.0336746 C3.83529042,34.5436138 3.04311886,32.9668002 3.04311886,31.7098798 C3.04311886,30.9568325 3.41651649,29.7689737 3.62152984,29.1689668 C4.9232279,28.9954842 7.52990423,27.9927103 8.79442654,27.4125932 C9.06285734,27.3993334 9.79161144,27.1380044 10.4853766,27.1380044 C12.1916343,27.1380044 13.8793042,28.642994 14.9043709,29.6595802 C15.0727552,29.3800189 15.3914826,28.9551522 16.262926,28.9551522 C17.4656709,28.9551522 18.1583427,30.0645571 18.5038585,31.2049017 L19.1331128,30.739703 C19.0215855,30.0905243 18.6864571,29.376704 18.1774773,28.861781 C17.7619836,28.4435442 16.9681719,28.0954739 16.3503983,28.0954739 C15.9731738,28.0954739 15.5888421,28.1789003 15.3428261,28.1789003 C14.4812233,28.1789003 14.1302405,27.791603 13.4949725,27.350714 C12.8072211,26.8700455 11.5301246,26.1722475 10.6165851,26.1722475 C10.0277868,26.1722475 9.76755654,26.4042944 9.27935143,26.4076093 C8.5680918,26.4109243 8.30622143,26.1120258 7.96179901,25.6799767 C7.81254929,25.4926818 7.09308913,24.8473705 6.89736972,24.5871466 C6.78584247,24.4363161 6.58848295,23.8241544 6.51905177,23.5197311 L5.53936133,22.8108832 Z" id="Fill-9"></path>
                <path d="M7.20367426,23.01151 C7.40370594,23.2364098 7.60644075,23.4851878 7.86215692,23.6850987 C8.10706057,23.8805672 8.41900187,24.0443831 8.7131025,24.213752 C9.12560026,24.4519792 9.5975669,24.7279673 10.0625054,24.882343 C10.4690563,25.0072873 10.9994105,25.0628181 11.4967866,25.0628181 C12.2039256,25.0628181 13.0413555,24.9134402 13.7338977,25.2438486 C14.1988362,25.4637506 14.2296518,25.9696362 14.5988995,26.1179035 C15.1714226,26.3439139 16.7668104,26.4 17.6528967,26.4 C19.4034442,26.4 21.2999608,26.1717684 22.4179757,25.8957803 L21.8741058,25.2766117 C21.097226,25.4048879 18.8233523,25.6597743 17.7804845,25.6597743 C16.3116032,25.6597743 14.9248971,25.4193259 14.9248971,24.794049 C14.9248971,24.3620193 15.3763199,23.737853 16.2375374,23.737853 C17.16363,23.737853 18.5611486,24.3142628 18.8217305,24.3931166 C19.0790685,24.4703044 19.1817875,24.4469814 19.344516,24.3731255 L19.8900077,24.0860312 C19.1720562,23.7422955 16.6678758,22.8576897 15.7963865,22.8576897 C15.3822668,22.8576897 15.1584476,22.9182183 14.8897564,23.2730601 C14.5572713,23.7150854 13.6636163,24.1171284 12.2374444,24.1171284 C11.4551584,24.1171284 10.3360622,23.9738589 10.0911586,23.8689057 C9.66136079,23.6900965 8.82014648,23.1853215 8.2833047,22.7904974 C7.58860008,22.277948 6.98634254,21.7076466 6.56735727,21.0390557 C6.43760699,20.8319258 6.38786938,20.6075813 6.39003189,20.4004514 C6.39003189,20.2260846 6.43598511,20.0667112 6.45544765,19.9389903 C6.57816979,20.1144677 6.7127857,20.241078 6.8841642,20.408781 C7.63671581,21.164 8.74662132,21.7287483 9.89166753,21.9508716 C10.2160432,22.014732 10.5052782,22.0691522 10.8269508,22.0691522 C11.3162175,22.0691522 11.7654778,21.7992725 12.051469,21.537167 L11.6005868,20.9996288 C11.4584021,21.0423875 11.1594359,21.0423875 10.9610261,21.0423875 C9.30130376,21.0423875 7.19718674,19.9323267 6.7127857,18.6395694 C6.66466998,18.5129592 6.60682298,18.444101 6.6549387,18.3247097 C6.70143255,18.208095 6.76252331,17.9548745 6.79874526,17.7244217 C6.8965986,17.8410364 7.09663028,18.0137372 7.35234645,18.1814402 C7.96811965,18.590147 9.1429003,19.1504529 9.37482892,19.2970542 C9.96519269,19.1260193 10.4112093,18.9172235 10.7626163,18.7334165 C11.1080764,18.5479436 11.580043,18.3802405 12.1266161,18.3802405 C13.3376187,18.3802405 14.7313529,19.0910349 16.0396682,19.7518515 L16.9333233,19.3947884 C15.7725989,18.5562732 13.244631,17.3795754 11.8406248,17.3795754 C11.0140074,17.3795754 10.2333433,17.9992992 9.67866082,17.9992992 C8.99747186,17.9992992 7.04689267,17.0252888 7.04689267,16.2123177 C7.04689267,15.5864855 8.31033601,15.2316437 10.3409279,14.9734254 C9.99060212,15.5076318 9.65487327,16.0579421 9.34455385,16.6260223 L9.86139246,16.9197803 C13.0413555,12.1885553 16.349447,9.11548033 19.1336718,7.24797921 C20.1424802,6.56828211 20.371165,6.16901559 20.7263564,5.42323682 C21.5881145,3.61793022 22.400135,2.22466221 23.8171162,2.22466221 C24.4772207,2.22466221 25.016225,2.60504826 25.3854727,3.07817075 L26.408878,3.39191982 L25.3741195,4.11437565 L26.4326655,4.54529473 C25.048122,4.94289532 23.1613366,6.32672309 22.3974319,8.35026578 C20.9226037,8.43189607 20.2127616,9.65746102 19.7299824,10.6808938 C19.4072286,11.3739183 18.8887681,11.6493512 18.1356759,12.173562 L12.1141817,16.484974 L12.942421,16.6032546 L18.5087079,12.7760713 C19.6040165,12.0158545 20.1251801,11.454438 20.3906276,10.9157892 C20.9053037,9.85626132 21.4599861,9.06994506 22.552051,9.06994506 C23.0878115,9.06994506 23.6619565,9.30261915 24.12257,9.75075278 L25.0994814,10.0778293 L24.032826,10.7464202 L24.9264811,11.3100579 C22.3731037,12.1324692 20.7917722,14.0082999 19.8721671,17.6016986 L20.5474092,17.7577402 C20.8842193,16.5671596 21.2221106,15.4782004 21.821665,14.5152962 C23.2975744,14.4991923 24.7940277,14.4414402 26.2650714,14.4414402 C30.1873142,14.4414402 33.4445869,14.6124751 35.2,15.1444603 L34.5782799,14.0360653 C32.699604,13.7106548 29.9716044,13.537954 26.2650714,13.537954 C25.0227125,13.537954 23.7641348,13.5840445 22.5152884,13.5990379 C23.321362,12.7222064 24.4837082,11.9847572 26.2731808,11.4161218 L25.0016281,10.6969978 L26.4121218,9.89402227 L24.4928989,9.15990497 C24.1577107,8.84948775 23.7387254,8.56350408 23.2110743,8.43023014 C23.8268475,6.48942836 25.9228551,5.35437862 27.9329031,4.57028359 L26.5256532,3.98276763 L27.9453375,3.18534521 L25.7579641,2.46788716 C25.1886848,1.77708389 24.6388679,1.46666667 23.7976536,1.46666667 C21.7703055,1.46666667 20.9182787,3.27252858 20.1154489,4.87570304 C19.6899761,5.71866073 19.4229067,6.0735026 18.7033333,6.55828656 C17.14633,7.60448701 15.1584476,9.20599555 13.2624716,11.2567483 C12.2720445,10.5215204 10.2479402,8.37747587 9.69812336,7.20855234 C9.4818729,7.48287454 9.26778494,8.08371789 9.26778494,8.08371789 C9.47268225,8.30750705 11.8595468,10.7791834 12.7472549,11.8303816 C12.6802173,11.9042376 12.6110171,11.9847572 12.5439795,12.056392 C11.6005868,12.2524157 9.14614405,12.4939748 8.31141726,12.379026 L7.84161313,13.2330898 C8.46495509,13.17034 10.9037197,12.876582 11.9173938,12.8143875 C11.6103181,13.1969948 11.3064862,13.5907082 11.0156293,13.9966385 C7.87999758,14.3614759 5.78398996,15.0228478 5.78398996,16.2123177 C5.78398996,16.4088968 5.86075887,16.6293541 5.86075887,16.8431477 C5.86075887,17.3384826 5.67964911,17.5245108 5.33310774,17.746634 C5.10766663,17.8904588 5.09306973,17.9909696 5.19038243,18.128686 C5.28661389,18.2669577 5.77101493,19.0027409 5.77101493,19.147121 C5.77101493,19.38868 5.54070819,19.624686 5.35202966,19.8384796 C5.19038243,20.0272843 5.19686995,20.0750408 5.32283584,20.313268 L6.23487218,22.2990497 L7.20367426,23.01151 Z" id="Fill-10"></path>
                <path d="M45.9810897,11.8924025 C45.7652654,12.0987811 45.573743,12.3195581 45.4180949,12.5547337 L44.8770876,11.8561396 C46.6841099,9.63983655 51.4524964,8.59887804 54.2472187,8.41596371 L54.2472187,7.2251541 C53.8907903,7.32914329 53.5112173,7.43953182 53.1547889,7.51845696 C52.6519704,7.62937877 52.1931267,7.73123485 51.8031386,7.72536879 C51.4131504,7.71416996 51.0978039,7.56911836 50.9508351,7.37660503 C50.5729979,6.88598933 50.9219042,6.13673385 52.1526235,5.43973959 L51.1834393,4.69848327 C50.4323938,5.59279036 49.6981283,6.57668814 48.9470828,7.1670268 C48.2637356,7.7035044 47.5520361,7.96854353 46.9757331,7.57391786 C46.6638583,7.35954013 46.5475562,7.261417 46.5186253,6.70467484 C46.5597072,5.88449339 47.0989787,4.63395665 47.5774953,3.82710714 L46.4277824,3.70445322 C46.2241091,4.93739179 45.6767369,5.99061569 45.0877044,6.8577256 C44.3569105,7.94134635 43.410871,8.69860101 42.4387937,9.32146963 L41.8,8.74446291 C42.5857625,8.31677401 43.5682549,7.62404599 44.2423443,6.66841194 C45.0263709,5.55652746 45.6628501,4.18387007 45.6628501,2.93333333 L48.9829571,3.22343653 C48.5154342,3.77111296 47.7452943,5.01525036 47.4525139,5.91275712 C47.3043878,6.37830875 47.3090168,6.74573724 47.4941744,6.87532378 C47.8465524,7.11796523 48.4610441,6.72813907 49.0599132,6.13673385 C49.9035375,5.304287 50.7303818,4.04521781 51.0925963,3.59353141 L53.4938588,5.43014059 C52.4239951,5.94902002 51.3923202,6.54735785 51.5977294,6.88172311 C51.78578,7.18249186 52.4685486,7.09290117 53.2184369,6.88278967 C53.8329286,6.70627467 54.4815588,6.44603504 55,6.17033036 L55,9.15881986 C53.8410292,9.14495464 51.8818305,9.3438673 49.9943804,9.87021262 C50.4428089,10.4541519 51.7331258,10.6701295 52.5507123,10.7757185 L52.1416298,13.2 C50.0765441,12.4016829 48.4830316,11.9361313 45.9810897,11.8924025 L46.8061982,11.2375372 C48.6525665,11.2706005 50.5024065,11.7644158 51.5497041,12.2518318 L51.6989874,11.3324607 C50.755841,11.2167394 49.5662035,10.7239906 49.0616491,10.1635155 C48.2417481,10.4461528 47.4635076,10.8023824 46.8061982,11.2375372 L45.9810897,11.8924025 Z" id="Fill-11"></path>
                <path d="M37.1980569,20.0362801 L37.9422989,18.4332646 C37.163232,17.5124666 36.2830605,16.3525292 35.541627,15.1640963 L34.8956812,14.0488579 C33.4055121,11.2311488 33.9469833,9.88124102 33.1510656,8.64140433 C32.4950093,7.61556379 29.2956113,8.25475855 28.765374,8.36427094 L29.6893574,6.84227223 L27.8666667,6.98475009 L29.4118815,5.16047484 C29.5792658,4.9207768 29.6612728,4.70566318 29.8387675,4.07093832 C30.1095031,3.10823502 30.9436158,1.46666667 33.3785509,1.46666667 C36.0769196,1.46666667 36.9138407,3.64015234 38.0900239,4.58609353 C39.4274127,5.65607427 41.181577,7.15963467 42.7419576,8.66207759 L43.3615039,9.26663067 C44.1607917,10.0795925 44.9763686,10.9143451 45.729036,11.9223061 L46.2536564,12.6542511 C49.503045,17.3789285 53.5449811,26.4036433 55.3294767,30.5360598 C55.5052864,30.934439 55.6266118,31.3406406 55.7333333,31.6501807 C54.5183934,30.9858428 53.1843747,30.157795 51.8093526,29.2107364 L51.0066946,28.6508822 C50.5118439,28.2972019 50.0130614,27.9284357 49.5182106,27.5484947 L48.6925233,26.9025951 C48.1976726,26.5109207 47.7090005,26.1024842 47.2270687,25.6929302 L48.8520439,35.1104369 C48.9733693,35.6658212 49.4496842,35.5719534 49.8321965,35.0858525 C50.2192023,34.5969579 50.3635572,34.4628611 50.2192023,33.818079 L48.6925233,26.9025951 L49.5182106,27.5484947 L50.9769249,33.4196997 C51.1195947,33.9521758 51.3453949,34.1225905 51.9666264,34.1471749 C52.5917896,34.1739943 52.7243489,33.9342962 52.5917896,33.5286534 L51.0066946,28.6508822 L51.8093526,29.2107364 L53.3090704,33.5957018 C53.6927061,34.7154101 53.3090704,34.8478307 52.6299847,34.8478307 C51.9570776,34.8478307 51.3453949,34.6891495 50.9735548,34.9288475 C50.602838,35.1651931 50.1394421,35.8127689 49.5828052,36.3782104 C49.0879545,36.8805147 48.3751673,36.7480941 48.2274423,35.8127689 L46.4317128,24.9956269 C45.2617082,23.9547004 44.1473111,22.850078 43.1508694,21.7264586 C42.7133113,21.5415167 42.2184606,21.3152284 41.7831492,21.1157594 L41.106872,20.8011906 C40.8664678,20.6888846 40.6884114,20.609544 40.6187616,20.5894294 C40.1222258,21.1850427 39.6436642,21.8437933 39.0870273,22.3215131 C38.7910156,22.5746208 38.5904915,22.7182162 38.1534951,22.7182162 C38.018689,22.7182162 37.8496197,22.71654 37.6945927,22.629377 C37.5288935,22.5332743 37.3727432,22.3483325 37.1980569,22.0851675 C37.0654976,21.8840223 36.8705904,21.625886 36.6998361,21.3431652 C36.3459701,20.7531393 35.9623344,20.0061083 35.6180171,19.4015553 C35.2293262,18.7288363 34.8956812,18.2215034 34.8507458,18.1376929 C34.781096,18.0086247 34.5912441,17.8499435 34.5912441,17.8499435 C34.4019538,18.1572487 34.2643393,18.7500683 34.2643393,19.0741356 L33.588062,18.8495234 C33.6779328,18.404769 33.8554275,17.8315052 33.9554086,17.5526956 C33.9554086,17.3157912 33.6908517,17.000105 33.4684216,17.000105 C33.159491,17.000105 32.842135,17.337582 32.6826144,17.9784529 L31.9984735,18.2745834 C32.0782338,17.2364506 32.4354699,16.1016564 33.4684216,16.1016564 C34.3042194,16.1016564 34.8209761,16.7324702 35.2197775,17.3258485 C35.6180171,17.9175506 36.918896,19.6909809 37.1980569,20.0362801 L37.7148136,20.6888846 C37.8046844,21.0956449 37.9771238,21.3314317 38.0636244,21.4621761 C38.2411191,21.7398682 38.4405198,21.7203125 38.7078852,21.4699984 C38.8275256,21.3582511 39.2246419,21.0392125 39.6088393,20.6441856 C39.9391142,20.2988864 40.2615254,19.8809513 40.3895912,19.6725425 C40.7681717,19.8423985 41.4759037,20.1748468 42.0454594,20.4246021 C39.603784,17.4336847 37.2682684,13.8013375 36.2527292,11.330604 C35.8342686,10.3125857 36.6532156,9.96728647 37.0486468,10.9769236 C38.1231638,13.706911 41.2652692,18.5343959 43.5727002,21.0643556 C46.2390524,23.9887834 51.1313903,28.2240074 54.311129,29.9298305 C53.8494182,29.0341756 53.2411056,27.7468463 52.5384289,26.260048 C48.6672472,24.0798575 44.7550619,20.0804203 42.934618,16.6453072 L43.7350292,16.7397337 C45.4313392,19.7250638 49.4850708,23.7043864 51.8773173,24.8632063 C49.68728,20.2407777 46.8400629,14.3863348 44.6174474,11.8692261 C41.8561692,8.74085946 38.8443764,6.32320586 37.4075681,5.06772455 C35.9887339,3.82788786 35.4040125,2.27404116 33.3622618,2.27404116 C31.6777473,2.27404116 30.7942057,3.47755997 30.4566288,4.69448845 C30.386979,4.93027533 30.3470988,5.08057549 30.1774678,5.32865458 L29.3832352,6.27683072 L31.1025746,6.07065688 L30.107818,7.45520637 C30.107818,7.45520637 32.8039399,6.85344697 33.7458975,8.12848406 C34.7659303,9.50130008 34.1065038,11.0428546 35.7775377,14.0438293 C36.5099841,15.3596541 38.2849311,17.7275802 38.8775162,18.2533514 L37.7148136,20.6888846 L37.1980569,20.0362801 Z" id="Fill-12"></path>
                <path d="M11.3940315,20.5279697 L11,20.2281999 C11.2217446,20.029148 11.6576249,19.7120954 12.0902443,19.5106596 C12.3119889,19.4069619 12.5641691,19.3557091 12.7473258,19.3557091 C13.1913585,19.3557091 13.5739766,19.5601246 13.944638,19.7806312 C14.530522,20.1239063 15.1908644,20.5279697 15.6984856,20.5279697 C15.8914252,20.5279697 16.0767558,20.4749289 16.29687,20.4749289 C16.7952519,20.4749289 17.2789595,20.7234458 17.5523358,20.7234458 C17.7191877,20.7234458 17.8349515,20.5601517 17.9441933,20.3873222 C18.2208306,19.947501 18.6001878,19.6268725 19.0887868,19.4033862 C19.6094518,19.1673845 20.2399022,19.0666667 20.9263322,19.0666667 C21.4649324,19.0666667 21.9790756,19.1530814 22.2475605,19.2168495 C22.2475605,19.2168495 21.8361373,19.7591765 21.7345043,19.8777733 C21.1915561,19.8777733 20.1562045,19.8616822 19.4893402,20.1543004 C19.0811779,20.3360693 18.9376961,20.5965055 18.9376961,20.9683868 C18.9376961,21.5047542 19.4828183,21.7139374 20.0937029,21.9165651 C20.4534944,22.0363538 20.8556783,22.0685358 21.198078,22.0685358 C21.6143926,22.0685358 22.4176734,21.8939185 23.2122582,21.7002303 C24.1698906,21.4689963 25.0639344,21.1978329 25.321006,21.0881755 L25.6666667,21.7723419 C24.6008795,22.1710416 23.5095482,22.5429229 22.4970231,22.7664093 C21.9258134,22.8951375 21.3806912,22.9744007 20.8937227,22.9744007 C20.0822896,22.9744007 19.2012896,22.6007314 18.4779021,22.2181227 C17.8637565,21.9028579 17.3208083,21.5834214 16.8316658,21.5834214 C16.2838262,21.5834214 15.7680526,21.7914127 15.2615183,22.1090614 C15.0109687,22.2675877 14.2614936,22.8337532 13.5946293,23.1227956 C13.0832036,23.346282 12.6652585,23.4666667 12.142963,23.4666667 C11.6831691,23.4666667 11.4081623,23.3975349 11.1673954,23.1895435 L11.9712196,22.6484085 C12.0739396,22.7646214 12.2603572,22.7860761 12.376121,22.7860761 C12.4935152,22.7860761 12.6299316,22.7664093 12.9435263,22.6221861 C13.125596,22.5429229 13.3870155,22.3629419 13.5413671,22.2568604 C13.8582228,22.0309901 13.9642037,21.8992821 14.0897502,21.7896248 C14.3343215,21.5768658 14.4207367,21.2997427 14.1120334,20.9952052 C13.9642037,20.8521739 13.813113,20.7079507 13.6185429,20.5756468 C13.3408187,20.3920899 13.1397268,20.2162806 12.6364535,20.2162806 C12.043504,20.2162806 11.6271894,20.3920899 11.3940315,20.5279697" id="Fill-13"></path>
                <path d="M21.9387266,20.5333333 C21.9387266,20.5333333 21.4399366,20.4092098 21.2666667,20.3954183 C21.6080936,19.9801409 22.0460971,19.6358641 22.3926369,19.4269484 C23.0749225,19.0132033 23.790726,18.7848773 24.869544,18.7276681 C25.164955,18.7097903 25.7631622,18.6581998 26.0972038,18.6745453 C26.4,18.6842504 26.9090158,18.7021283 27.3776966,18.7823233 C27.7088977,18.8364678 28.0213516,18.92126 28.2764276,18.9590589 C28.4332227,18.9784692 28.9774605,18.9692748 29.1689095,18.943735 C29.9318651,18.8364678 30.8510477,18.5693213 31.3316586,18.3333333 L31.5333333,18.9953254 C30.5033717,19.4678121 29.3353623,19.9259964 28.26677,19.9259964 C27.7259407,19.9259964 27.1459126,19.8892191 26.608492,19.8427366 C25.6574959,19.7579444 24.8371625,19.6481232 24.5519773,19.6481232 C23.7856131,19.6481232 22.6766858,19.9694141 21.9387266,20.5333333" id="Fill-14"></path>
                <path d="M22.1808784,25.0031918 L21.2666667,24.6095622 C22.5333198,24.0034736 24.4664078,23.3943571 25.260469,23.2762682 C26.0566663,23.15717 26.963402,23.0673417 27.4861901,22.9033294 C27.7259571,23.4735876 28.198549,24.0837135 28.8772658,24.0837135 C29.1303828,24.0837135 29.5362245,23.9060755 29.9468722,23.7329794 C30.4061141,23.5417158 30.870696,23.3327894 31.1088609,23.231354 C31.369988,23.1223489 32.2083714,22.7751475 32.9223323,22.4763927 C33.1952075,22.3603225 33.9454805,22.0242234 33.9865987,22 L34.4666667,22.2462708 C34.3230201,22.8422664 34.0832531,23.571995 33.81465,24.0958251 C33.7083836,24.3032376 33.6031851,24.4687639 33.4894427,24.5913947 C33.2806478,24.8149561 32.9442264,25.107655 32.5068786,25.4033818 C32.0284127,25.7243413 31.4426123,26.0538799 30.8231698,26.3930069 C30.3398978,26.6539127 29.8534218,26.919865 29.3605378,27.1333333 L29.1063527,26.6947896 C29.8646358,26.2900577 30.636803,25.7748067 31.3144518,25.3004326 C31.6348531,25.0763665 31.9477784,24.8477586 32.1688553,24.6585136 C32.3317259,24.515192 32.4358564,24.3991218 32.5175587,24.2820422 C32.7199455,24.0034736 33.0472889,23.4523922 33.1482153,23.1924957 C32.8651941,23.3226963 31.7945197,23.8000983 31.3144518,24.039304 C30.7724396,24.3077795 29.897744,24.7286604 29.403258,24.9481846 C29.0182424,25.1197667 28.672209,25.2151462 28.4255,25.2151462 C27.8776137,25.2151462 27.6266327,24.8406934 27.4920641,24.6151134 C27.1465647,24.0302202 26.7754332,23.9797549 25.7976752,23.9671386 C24.6650566,23.9540176 23.1063042,24.3955892 22.1808784,25.0031918" id="Fill-15"></path>
                <path d="M27.3399817,22.5237333 C27.3399817,22.5237333 27.2020269,21.984 27.1333333,21.7882667 C27.1333333,21.7882667 27.3030802,21.736 27.5210829,21.736 C27.8855561,21.736 28.7757337,21.8325333 29.1481549,21.8325333 C30.5453023,21.8325333 31.0590846,21.4197333 31.4706782,21.0688 C31.8164168,20.7776 32.1791869,20.5333333 33.1278392,20.5333333 C33.9657869,20.5333333 34.9280644,20.8512 35.2,20.9781333 L35.1426608,21.6917333 C34.7316349,21.4773333 34.169029,21.3386667 33.6734136,21.3386667 C33.3242687,21.3386667 33.0154315,21.3637333 32.795158,21.4682667 C32.5464987,21.5861333 32.3994604,21.7696 32.1672649,21.9461333 C31.9186056,22.1354667 31.5830858,22.3216 31.1414033,22.4762667 C30.6980177,22.6304 30.1524433,22.7333333 29.3349333,22.7333333 C28.2602482,22.7333333 27.6755014,22.5674667 27.3399817,22.5237333" id="Fill-16"></path>
                <path d="M19.8,28.5512756 L20.4076002,28.2590303 C20.9611797,28.5085387 21.7629339,28.8001556 22.3229316,28.8001556 C22.6566839,28.8001556 22.9353456,28.6549756 23.1648003,28.534935 C23.3434433,28.4431763 25.3620025,27.2760802 26.3664684,26.8499676 C26.6847098,26.7161004 27.00723,26.6400537 27.166618,26.6400537 C27.4057002,26.6400537 27.4201414,26.7663791 27.4880685,26.89459 C27.6779436,27.2521978 29.1680618,29.7516814 29.3199618,29.9433692 C30.5854391,29.4858324 31.8792639,28.822781 32.6275322,27.9768406 C33.4046828,27.0975906 34.0529324,26.073789 34.6776481,25.2850407 C34.9183348,24.9783402 35.2157166,24.7036924 35.362803,24.6100482 C36.0099828,24.2071895 38.0221237,24.167595 38.8666667,24.2166168 L38.3649686,25.049359 C36.8753852,25.049359 36.0415395,25.2278486 35.6682077,25.5584316 C35.5082847,25.7036115 35.2697374,25.9839157 35.0418873,26.3333532 C34.5310966,27.1145596 33.9785869,28.1792127 33.753946,28.3872411 C34.1909261,28.7429635 34.6669509,29.0528064 35.4243118,29.0528064 C36.6871148,29.0528064 37.5920968,28.1270485 38.0852371,27.6010068 L38.507776,27.8989085 C38.195953,28.3784423 37.8370624,28.8686604 37.3829668,29.2331815 C36.8732458,29.6398111 36.2346237,29.9018892 35.8575479,30.0213013 C35.1237208,29.8578953 33.5137941,29.478919 33.1308348,29.3896742 C31.7353867,30.053354 29.463839,31.1368616 28.7016644,31.408367 C28.5909485,31.44859 28.4123055,31.4749864 28.1855251,31.5026397 C27.5832735,31.5403488 26.744614,31.5365779 25.9803,31.5265221 C25.4379526,31.5139524 24.9239527,31.5196088 24.6661505,31.4636737 L23.9932974,30.6403587 C24.5869913,30.7723405 24.8191203,30.8157059 25.3748392,30.8157059 C26.6863143,30.8157059 27.5324618,30.5567703 27.8111236,30.4712963 C28.0432525,30.3983921 28.0828321,30.2425279 28.0133004,29.9955334 C27.9025845,29.5977026 27.7095003,29.2199833 27.4105139,28.822781 C27.2521955,28.6028114 26.8981186,28.2313769 26.7494277,28.1125933 C26.5707847,27.9692988 26.3932114,27.9322182 25.896327,28.1308194 C25.4379526,28.3111945 24.0125524,29.2187264 23.3974641,29.603359 C23.0952686,29.7931614 22.857791,29.847211 22.3133042,29.6995171 C21.7329817,29.5417675 20.3535794,28.947221 19.8,28.5512756" id="Fill-17"></path>
                <path d="M22.7356014,11.7333333 C23.1355326,11.7333333 23.4666667,11.4023464 23.4666667,11.005314 C23.4666667,10.5968944 23.1355326,10.2666667 22.7356014,10.2666667 C22.332646,10.2666667 22,10.5968944 22,11.005314 C22,11.4023464 22.332646,11.7333333 22.7356014,11.7333333" id="Fill-18"></path>
                <path d="M42.5333333,42.5575338 C42.5333333,42.1383934 42.2503809,41.8 41.8989147,41.8 L40.9650826,41.8 C40.6162858,41.8 40.3333333,42.1383934 40.3333333,42.5575338 L40.334668,54.2424662 C40.334668,54.6621378 40.6162858,55 40.9659724,55 L41.9015841,55 C42.2503809,55 42.5333333,54.6573567 42.5333333,54.2408725 L42.5333333,42.5575338 Z" id="Fill-19"></path>
                <path d="M44,42.3051713 L44,42.8513555 C44,43.0840775 44.2051733,43.2666667 44.4565828,43.2666667 L52.8426796,43.2666667 C53.2235506,43.2666667 53.5333333,42.9838118 53.5333333,42.6360481 L53.5333333,41.699883 C53.5333333,41.3515916 53.2223947,41.0381294 52.8426796,41.0687368 C52.8426796,41.0687368 44.7334222,41.7964547 44.4750773,41.8212573 C44.1728079,41.8555587 44,42.0756156 44,42.3051713" id="Fill-20"></path>
                <path d="M37.9339729,55 C36.020006,55 34.8121629,53.5447271 34.8121629,51.9247464 L34.8105701,47.2497021 L34.2610679,47.2497021 C33.9690618,47.2497021 33.7333333,47.0159234 33.7333333,46.7199807 L33.7333333,45.940541 C33.7333333,45.6451296 33.9690618,45.4108195 34.2610679,45.4108195 L34.8105701,45.4108195 L34.8105701,42.5353405 C34.8105701,42.1283529 35.1386787,41.8 35.5469563,41.8 L36.6353424,41.8 C37.0420271,41.8 37.3701357,42.1310095 37.3701357,42.5385284 L37.3733213,45.4108195 L39.0658944,45.4108195 C39.3600241,45.4108195 39.6,45.6483175 39.6,45.940541 L39.6,46.7199807 C39.6,47.0159234 39.361086,47.2497021 39.0706727,47.2497021 L37.3733213,47.2497021 L37.3733213,51.5746096 C37.3733213,52.4241829 37.8851282,53.0006601 38.8057436,53.0006601 L38.9575867,53.0006601 C39.2750769,53.0006601 39.5341659,53.2604734 39.5341659,53.5760747 L39.5341659,54.4267107 C39.5341659,54.7454999 39.2766697,55 38.9591795,55 L37.9339729,55 Z" id="Fill-21"></path>
                <path d="M19.0742825,46.7670258 C20.288862,46.7670258 21.336458,47.5947478 21.441951,48.7138452 L16.7201531,48.7138452 C16.8284668,47.5963666 17.8563181,46.7670258 19.0742825,46.7670258 L19.0742825,44.7333333 C15.7808707,44.7333333 13.9333333,47.1976139 13.9333333,49.7957114 C13.9355899,52.5616195 15.9123139,55 19.0962837,55 C21.2721468,55 23.4192392,53.9041047 23.8259794,52.0986563 C23.8812645,51.8580018 23.7075114,51.5369492 23.350979,51.5369492 L21.7939704,51.5369492 C21.513596,51.5369492 21.2800447,51.6648307 21.141832,51.8623185 C20.6978589,52.4833798 20.0451563,52.8168427 19.0793597,52.8168427 C17.7158489,52.8168427 16.7714893,51.7910934 16.7004084,50.6509522 L23.3188234,50.6509522 C23.9292159,50.6509522 24.2,50.3336767 24.2,49.7957114 C24.2,47.2629036 22.6350935,44.7333333 19.0742825,44.7333333 L19.0742825,46.7670258 Z" id="Fill-22"></path>
                <path d="M48.4039492,46.7670258 C49.6208521,46.7670258 50.6685057,47.5947478 50.7751328,48.7138452 L46.0547679,48.7138452 C46.1597025,47.5963666 47.1909953,46.7670258 48.4039492,46.7670258 L48.4039492,44.7333333 C45.1154339,44.7333333 43.2666667,47.1976139 43.2666667,49.7957114 C43.2666667,52.5616195 45.2468843,55 48.4259516,55 C50.6030626,55 52.7525296,53.9041047 53.1581639,52.0986563 C53.2111954,51.8580018 53.0413818,51.5369492 52.6837015,51.5369492 L51.128864,51.5369492 C50.8433967,51.5369492 50.6132176,51.6648307 50.4733048,51.8623185 C50.0276148,52.4833798 49.377133,52.8168427 48.4124116,52.8168427 C47.0460051,52.8168427 46.1044144,51.7910934 46.0327655,50.6509522 L52.6504158,50.6509522 C53.2630985,50.6509522 53.5333333,50.3336767 53.5333333,49.7957114 C53.5333333,47.2629036 51.9649559,44.7333333 48.4039492,44.7333333 L48.4039492,46.7670258 Z" id="Fill-23"></path>
                <path d="M31.6803493,41.2988982 L10.875664,41.2988982 C10.4059532,41.2988982 10.0238342,41.6876214 10.0238342,42.1699055 L10.0939076,50.4834592 C10.0939076,50.4834592 5.61030436,42.2489868 5.37873364,41.8257351 C5.15865934,41.4303289 4.68566384,41.0666667 4.03474758,41.0666667 L2.32178122,41.0666667 C1.85042806,41.0666667 1.46666667,41.4531623 1.46666667,41.937674 L1.46666667,54.1250943 C1.46666667,54.6062646 1.85042806,55 2.32178122,55 L3.41941546,55 C3.89405331,55 4.27617236,54.6062646 4.27617236,54.1250943 L4.20828875,45.579866 C4.20828875,45.579866 8.73240314,53.9012164 8.92510502,54.2275657 C9.18514305,54.67198 9.62912379,55 10.270186,55 L11.8408157,55 C12.3138112,55 12.6959303,54.6062646 12.6959303,54.1250943 L12.6959303,43.3661484 L31.6803493,43.3661484 C32.0038914,43.3661484 32.2666667,43.1005023 32.2666667,42.7747099 L32.2666667,41.8964627 C32.2666667,41.5656581 32.0038914,41.2988982 31.6803493,41.2988982" id="Fill-24"></path>
                <path d="M28.936921,46.6708886 C29.9088086,46.6708886 30.6350736,46.9938144 30.9001339,47.5543446 C31.0238286,47.8205695 31.2694511,47.8751105 31.6040161,47.8751105 L32.9416867,47.8751105 C33.1613922,47.8751105 33.4158501,47.7006873 33.4158501,47.4339224 C33.4158501,46.0066765 31.5639625,44.7333333 28.9316198,44.7333333 C26.2174029,44.7333333 24.4303079,45.9213549 24.4303079,47.8124693 C24.4303079,49.2613157 25.6772691,50.1193913 27.2104953,50.487678 C27.9108434,50.655621 29.1024364,50.9240059 29.6826238,51.0681885 C30.3111111,51.2161512 30.8706827,51.3905744 30.8706827,51.8819833 C30.8706827,52.6585174 29.9771352,52.9252823 29.0011245,52.9252823 C28.08166,52.9252823 27.1580723,52.5434953 26.8953681,51.9430044 C26.7434003,51.591458 26.4753949,51.5423171 26.0707363,51.5423171 L24.7089157,51.5423171 C24.4703614,51.5423171 24.2,51.7253805 24.2,52.0137457 L24.2,52.1714286 C24.2,53.5511537 26.21917,55 29.0028916,55 C30.982008,55 33.7333333,54.2461463 33.7333333,51.8150221 C33.7333333,50.4082965 32.7084337,49.4357388 31.0379652,49.0442317 C30.3829719,48.8903289 28.8132262,48.5269023 28.4686479,48.4469809 C27.8637216,48.3027982 27.2941365,48.124055 27.2941365,47.6402062 C27.2941365,46.916593 28.0221687,46.6708886 28.936921,46.6708886" id="Fill-25"></path>
            </g>
        </g>
    </g>
</svg>