<?xml version="1.0" encoding="UTF-8"?>
<svg width="176px" height="100px" viewBox="0 0 176 100" version="1.1" xmlns="http://www.w3.org/2000/svg" xmlns:xlink="http://www.w3.org/1999/xlink">
    <!-- Generator: Sketch 56 (81588) - https://sketch.com -->
    <title>Logo / Heineken /1440</title>
    <desc>Created with Sketch.</desc>
    <defs>
        <polygon id="path-1" points="0.131522152 0.106421157 4.4111962 0.106421157 4.4111962 4.38151456 0.131522152 4.38151456"></polygon>
    </defs>
    <g id="Logo-/-Heineken-/1440" stroke="none" stroke-width="1" fill="none" fill-rule="evenodd">
        <g id="Group-44" transform="translate(42.000000, 26.000000)">
            <g id="Group-3" transform="translate(87.487342, 31.159614)">
                <mask id="mask-2" fill="white">
                    <use xlink:href="#path-1"></use>
                </mask>
                <g id="Clip-2"></g>
                <path d="M2.27430696,3.95121076 C1.32956013,3.95121076 0.562844937,3.18566013 0.562844937,2.24455253 C0.562844937,1.2998057 1.32956013,0.538039873 2.27430696,0.538039873 C3.21439557,0.538039873 3.97601582,1.2998057 3.97601582,2.24455253 C3.97601582,3.18566013 3.21439557,3.95121076 2.27430696,3.95121076 M2.27430696,0.106421157 C1.09111709,0.103951266 0.131522152,1.0601981 0.131522152,2.24455253 C0.131522152,3.42541329 1.09111709,4.38151456 2.27430696,4.38151456 C3.45298418,4.38151456 4.41126899,3.42541329 4.41126899,2.24455253 C4.41126899,1.0601981 3.45298418,0.103951266 2.27430696,0.106421157" id="Fill-1" fill="#D4D8D4" mask="url(#mask-2)"></path>
            </g>
            <path d="M89.8325848,33.1216158 L89.4099962,33.1216158 L89.4099962,32.591888 L89.7813443,32.591888 C89.9432177,32.591888 90.1365342,32.6582677 90.1365342,32.8434323 C90.1365342,33.0016665 90.0130911,33.1216158 89.8325848,33.1216158 M90.3355278,33.3999449 C90.5091924,33.3348753 90.6803823,33.1216158 90.6803823,32.8131538 C90.6803823,32.3227297 90.2365405,32.1713373 89.979319,32.1713373 L88.8775025,32.1713373 L88.8775025,34.4749766 L89.4050468,34.4749766 L89.4050468,33.575793 L89.6030215,33.575793 C89.8689772,33.575793 90.0235722,33.646831 90.0981038,33.8937171 C90.152838,34.063888 90.1786038,34.2292551 90.286762,34.4749766 C90.5077367,34.4749766 90.6036671,34.4761411 90.8608886,34.4761411 C90.7988759,34.3436728 90.6862051,34.1638943 90.6490848,33.9135146 C90.6116734,33.6667741 90.5266608,33.5246981 90.3355278,33.3999449" id="Fill-4" fill="#D4D8D4"></path>
            <path d="M17.6692259,41.3414665 C17.4143335,40.6380741 17.6176943,38.4853905 18.8043778,38.0783778 C20.0520551,37.6509854 20.8183335,38.2936753 21.1909918,39.5515424 C21.3295741,40.0170741 21.2992956,40.5098272 21.146593,40.6949918 C20.9254728,40.9629854 20.5305424,41.1238399 20.1759348,41.2424791 L19.2415234,41.5521057 C18.3232703,41.8644981 17.884669,41.927093 17.6692259,41.3414665 M23.5610108,43.9528399 C22.9558778,44.5595741 22.1676184,45.1638335 21.393188,45.4094095 C20.6622829,45.64465 18.5791816,45.8270487 17.966188,44.1061247 C17.8337196,43.7340487 17.9417323,43.6190487 18.2784348,43.5193335 C18.7812323,43.3701247 20.0757829,42.9893146 21.4425361,42.4769095 C22.6827892,42.0147259 23.7891184,41.4464222 24.1349918,41.2143842 C24.7557006,40.8069348 24.8477006,40.2339728 24.5751943,39.617631 C23.7042513,37.6613209 21.7355677,35.6127196 18.461707,36.2357576 C15.8602323,36.7318589 13.9967956,39.0739285 13.9967956,41.7527006 C13.9967956,45.0705234 15.995612,47.0106753 18.5397323,47.6117323 C20.8917006,48.1718842 23.6575234,47.0313462 24.8405677,45.1144854 C25.3097386,44.3760108 23.989131,43.4998272 23.5610108,43.9528399" id="Fill-6" fill="#D4D8D4"></path>
            <path d="M48.1419696,41.3414665 C47.9892671,40.9206247 48.0006215,39.9818462 48.2882671,39.2079981 C48.4817291,38.6878778 48.7705392,38.2818842 49.2769759,38.0783778 C49.8474633,37.8495424 50.3354127,37.9122829 50.7166595,38.1319475 C51.1533684,38.3834918 51.4644506,38.8801753 51.6634443,39.5515424 C51.8020266,40.0170741 51.7718937,40.5098272 51.6193367,40.6949918 C51.3979253,40.9629854 51.0529253,41.0976373 50.6486785,41.2424791 C50.2441405,41.3873209 49.8845835,41.5034854 49.7141215,41.5569095 C48.7893177,41.8464475 48.3572671,41.927093 48.1419696,41.3414665 M54.0336089,43.9528399 C53.4281848,44.5595741 52.6400709,45.1638335 51.8656405,45.4094095 C51.1347354,45.64465 49.0516342,45.8270487 48.4387861,44.1061247 C48.3063177,43.7340487 48.4140392,43.6190487 48.7510329,43.5193335 C49.2536848,43.3701247 50.548381,42.9893146 51.9151342,42.4769095 C53.1552418,42.0147259 54.2617165,41.4464222 54.6075899,41.2143842 C55.2284443,40.8069348 55.3202987,40.2339728 55.0477924,39.617631 C54.1765582,37.6613209 52.2080203,35.6127196 48.9343051,36.2357576 C46.3325392,36.7318589 44.4692481,39.0739285 44.4692481,41.7527006 C44.4692481,45.0705234 46.4683557,47.0106753 49.0124759,47.6117323 C51.3641532,48.1718842 54.1299759,47.0313462 55.3128747,45.1144854 C55.7823367,44.3760108 54.461438,43.4998272 54.0336089,43.9528399" id="Fill-8" fill="#D4D8D4"></path>
            <path d="M71.371693,41.3414665 C71.2192816,40.9206247 71.2309272,39.9818462 71.5184272,39.2079981 C71.7117437,38.6878778 72.0005538,38.2818842 72.5069905,38.0783778 C73.0776234,37.8495424 73.5651361,37.9122829 73.9466741,38.1319475 C74.3833829,38.3834918 74.6946108,38.8801753 74.8934589,39.5515424 C75.0320411,40.0170741 75.0017627,40.5098272 74.8492057,40.6949918 C74.6277943,40.9629854 74.2827943,41.0976373 73.8785475,41.2424791 C73.4738639,41.3873209 73.1148892,41.5034854 72.9438449,41.5569095 C72.0196234,41.8464475 71.5871361,41.927093 71.371693,41.3414665 M77.2633323,43.9528399 C76.6581994,44.5595741 75.8697943,45.1638335 75.0955095,45.4094095 C74.36475,45.64465 72.2815032,45.8270487 71.6688006,44.1061247 C71.5363323,43.7340487 71.6437627,43.6190487 71.9809019,43.5193335 C72.4839905,43.3701247 73.7783956,42.9893146 75.1450032,42.4769095 C76.3852563,42.0147259 77.4915854,41.4464222 77.8374589,41.2143842 C78.4581677,40.8069348 78.5501677,40.2339728 78.2776614,39.617631 C77.4065728,37.6613209 75.4380348,35.6127196 72.1640285,36.2357576 C69.5625538,36.7318589 67.6991171,39.0739285 67.6991171,41.7527006 C67.6991171,45.0705234 69.6982247,47.0106753 72.2421994,47.6117323 C74.5941677,48.1718842 77.3599905,47.0313462 78.5430348,45.1144854 C79.0120601,44.3760108 77.6911614,43.4998272 77.2633323,43.9528399" id="Fill-10" fill="#D4D8D4"></path>
            <path d="M8.73787468,44.5823848 C8.73787468,45.0268089 8.59798228,45.5146127 8.25516582,45.6676063 L7.51334304,46.0029987 C7.38043797,46.0639924 7.34302658,46.1615241 7.34302658,46.3086949 C7.34302658,46.3453785 7.34579241,46.3693975 7.35307089,46.4190367 L7.44055823,47.2613025 C7.47942532,47.4905747 7.63591266,47.5278405 7.93957089,47.5278405 L13.313419,47.5278405 C13.6167861,47.5278405 13.773419,47.4905747 13.8122861,47.2613025 L13.8994823,46.4190367 C13.9067608,46.3693975 13.9099633,46.3453785 13.9099633,46.3086949 C13.9099633,46.1615241 13.8724063,46.0639924 13.7395013,46.0029987 L12.9975329,45.6676063 C12.654862,45.5146127 12.5148241,45.0268089 12.5148241,44.5823848 L12.5148241,35.2723342 C12.5148241,34.8277646 12.654862,34.3401063 12.9975329,34.1871127 L13.7395013,33.8514291 C13.8724063,33.7907266 13.9099633,33.6927582 13.9099633,33.5457329 C13.9099633,33.5087582 13.9067608,33.4851759 13.8994823,33.4355367 L13.8122861,32.8030367 C13.773419,32.5739101 13.6167861,32.5363532 13.313419,32.5363532 L8.19038734,32.5363532 C7.88702025,32.5363532 7.73067848,32.5739101 7.69181139,32.8030367 L7.60432405,33.4355367 C7.59719114,33.4851759 7.59413418,33.5087582 7.59413418,33.5457329 C7.59413418,33.6927582 7.63154557,33.7907266 7.7645962,33.8514291 L8.36914684,34.1871127 C8.71472911,34.3845051 8.73787468,34.8277646 8.73787468,35.2723342 L8.73787468,37.8688595 C8.73787468,38.0493658 8.59128608,38.1956633 8.41077975,38.1956633 L5.4990962,38.1956633 C5.31858987,38.1956633 5.17229241,38.0493658 5.17229241,37.8688595 L5.17229241,35.2723342 C5.17229241,34.8277646 5.19514684,34.3845051 5.54058354,34.1871127 L6.14557089,33.8514291 C6.27847595,33.7907266 6.31603291,33.6927582 6.31603291,33.5457329 C6.31603291,33.5087582 6.31283038,33.4851759 6.3055519,33.4355367 L6.2183557,32.8030367 C6.17934304,32.5739101 6.0228557,32.5363532 5.71934304,32.5363532 L0.596748101,32.5363532 C0.293089873,32.5363532 0.136748101,32.5739101 0.097735443,32.8030367 L0.0103936709,33.4355367 C0.00326075949,33.4851759 5.82278481e-05,33.5087582 5.82278481e-05,33.5457329 C5.82278481e-05,33.6927582 0.0376151899,33.7907266 0.170665823,33.8514291 L0.912343038,34.1871127 C1.25515949,34.3401063 1.3950519,34.8277646 1.3950519,35.2723342 L1.3950519,44.5823848 C1.3950519,45.0268089 1.25515949,45.5146127 0.912343038,45.6676063 L0.170665823,46.0029987 C0.0376151899,46.0639924 5.82278481e-05,46.1615241 5.82278481e-05,46.3086949 C5.82278481e-05,46.3453785 0.00326075949,46.3693975 0.0103936709,46.4190367 L0.097735443,47.2613025 C0.136748101,47.4905747 0.293089873,47.5278405 0.596748101,47.5278405 L5.97045063,47.5278405 C6.27381772,47.5278405 6.43045063,47.4905747 6.46946329,47.2613025 L6.55695063,46.4190367 C6.56408354,46.3693975 6.56714051,46.3453785 6.56714051,46.3086949 C6.56714051,46.1615241 6.52958354,46.0639924 6.39667848,46.0029987 L5.65500127,45.6676063 C5.31218481,45.5146127 5.17229241,45.0268089 5.17229241,44.5823848 L5.17229241,40.7972835 C5.17229241,40.6167772 5.31858987,40.4703342 5.4990962,40.4703342 L8.41077975,40.4703342 C8.59128608,40.4703342 8.73787468,40.6167772 8.73787468,40.7972835 L8.73787468,44.5823848 Z" id="Fill-12" fill="#D4D8D4"></path>
            <path d="M29.9207437,34.1046329 C29.9207437,35.1384684 29.0524209,35.9765127 27.9810285,35.9765127 C26.9099272,35.9765127 26.0416044,35.1384684 26.0416044,34.1046329 C26.0416044,33.0707975 26.9099272,32.2326076 27.9810285,32.2326076 C29.0524209,32.2326076 29.9207437,33.0707975 29.9207437,34.1046329" id="Fill-14" fill="#D4D8D4"></path>
            <path d="M25.8594968,47.5278842 C25.568212,47.5278842 25.4181297,47.4920741 25.3807184,47.2721184 L25.2968703,46.4327639 C25.2898829,46.3851627 25.2910475,46.3624538 25.2910475,46.3266437 C25.2910475,46.1854411 25.3296234,46.0989728 25.4504462,46.0334665 L26.0279209,45.711612 C26.3484652,45.5567259 26.4911234,45.0970171 26.4911234,44.6703525 L26.4911234,39.3544411 C26.4911234,38.9097259 26.4149905,38.341131 26.0245728,38.1463589 L25.6548259,37.9333905 C25.5219209,37.8725424 25.4845095,37.7747196 25.4845095,37.6276943 C25.4845095,37.5908652 25.4872753,37.5671373 25.4945538,37.5174981 L25.5820411,36.8851437 C25.6210538,36.6555804 25.7775411,36.6184601 26.0810538,36.6184601 L29.7111234,36.6184601 C29.8917753,36.6184601 30.0383639,36.7647576 30.0383639,36.9457006 L30.0383639,44.6703525 C30.0383639,45.0970171 30.180731,45.5567259 30.5014209,45.711612 L31.0786044,46.0334665 C31.1994272,46.0989728 31.2381487,46.1854411 31.2381487,46.3266437 C31.2381487,46.3624538 31.2393133,46.3851627 31.2321804,46.4327639 L31.1484778,47.2721184 C31.111212,47.4920741 30.9609842,47.5278842 30.6698449,47.5278842 L25.8594968,47.5278842 Z" id="Fill-16" fill="#D4D8D4"></path>
            <path d="M36.8467424,37.1844785 C36.8467424,37.1844785 37.050831,37.0849089 37.4186854,36.9065861 C38.1455146,36.5652253 39.5690399,35.9538329 40.7449513,36.3288203 C41.7640842,36.6540228 42.6444892,37.3945354 42.6444892,39.3358519 L42.6444892,45.2186114 C42.6444892,45.469719 42.6555525,45.5730734 42.7720082,45.6369785 C42.9282044,45.722719 43.2005652,45.466662 43.4608437,45.3324468 C43.7237424,45.1970671 43.8691665,45.3561747 44.0301665,45.5339152 C44.1710778,45.6895291 44.3399386,45.9096304 44.2026665,46.1977127 C43.7681411,47.1081051 42.7944259,47.6314278 41.6557804,47.6314278 C40.5794386,47.6314278 39.2089006,47.0140671 39.2089006,45.4011557 L39.2089006,39.7377696 C39.2089006,38.8722127 38.5810589,38.5719025 38.0931095,38.6324595 C37.3569639,38.7234405 36.8214133,39.3396367 36.8214133,40.4376684 L36.8209766,44.6703962 C36.8209766,45.0969152 36.9639259,45.5567696 37.2841791,45.7116557 L37.8616538,46.0335101 C37.9824766,46.0988709 38.0210525,46.1854848 38.0210525,46.3266873 C38.0210525,46.3624975 38.0223627,46.3852063 38.0152297,46.432662 L37.9313816,47.272162 C37.8942614,47.4921177 37.7440335,47.5279278 37.4528943,47.5279278 L32.6424006,47.5279278 C32.351407,47.5279278 32.2011791,47.4921177 32.1636222,47.272162 L32.0800652,46.432662 C32.0730778,46.3852063 32.0741696,46.3624975 32.0741696,46.3266873 C32.0741696,46.1854848 32.1128184,46.0988709 32.2336411,46.0335101 L32.8109703,45.7116557 C33.1315146,45.5567696 33.2740272,45.0969152 33.2740272,44.6703962 L33.2740272,39.3543392 C33.2740272,38.9097696 33.1980399,38.3410291 32.8076222,38.146257 L32.4380209,37.9334342 C32.3052614,37.8725861 32.2674133,37.7747633 32.2674133,37.627738 C32.2674133,37.5909089 32.2704703,37.567181 32.2778943,37.5175418 L32.3650905,36.8850418 C32.4041032,36.6554785 32.5605905,36.6183582 32.8639576,36.6183582 L36.2839703,36.6183582 C36.5534196,36.6183582 36.6576475,36.7719342 36.7345082,36.9455987 L36.8467424,37.1844785 Z" id="Fill-18" fill="#D4D8D4"></path>
            <path d="M83.7853316,37.1844785 C83.7853316,37.1844785 83.9892747,37.0849089 84.3574203,36.9065861 C85.0842494,36.5652253 86.507338,35.9538329 87.6833949,36.3288203 C88.7026734,36.6540228 89.5829329,37.3945354 89.5829329,39.3358519 L89.5829329,45.2186114 C89.5829329,45.469719 89.5938506,45.5730734 89.7103063,45.6369785 C89.8666481,45.722719 90.1391544,45.466662 90.3992873,45.3324468 C90.6623316,45.1970671 90.8077557,45.3561747 90.9687557,45.5339152 C91.1096671,45.6895291 91.2783823,45.9096304 91.1409646,46.1977127 C90.7065848,47.1081051 89.7330152,47.6314278 88.5940785,47.6314278 C87.5180278,47.6314278 86.1473443,47.0140671 86.1473443,45.4011557 L86.1473443,39.7377696 C86.1473443,38.8722127 85.5196481,38.5719025 85.0316987,38.6324595 C84.2955532,38.7234405 83.7600025,39.3396367 83.7600025,40.4376684 L83.7595658,44.6703962 C83.7595658,45.0969152 83.9023696,45.5567696 84.2227684,45.7116557 L84.800243,46.0335101 C84.9210658,46.0988709 84.9596418,46.1854848 84.9596418,46.3266873 C84.9596418,46.3624975 84.9608063,46.3852063 84.953819,46.432662 L84.8699709,47.272162 C84.8328506,47.4921177 84.6826228,47.5279278 84.391338,47.5279278 L79.5811354,47.5279278 C79.2895595,47.5279278 79.1396228,47.4921177 79.1022114,47.272162 L79.0186544,46.432662 C79.0115215,46.3852063 79.0126155,46.3624975 79.0126155,46.3266873 C79.0126155,46.1854848 79.051262,46.0988709 79.1720848,46.0335101 L79.7494139,45.7116557 C80.0699582,45.5567696 80.212762,45.0969152 80.212762,44.6703962 L80.212762,39.3543392 C80.212762,38.9097696 80.1366291,38.3410291 79.7462114,38.146257 L79.3766101,37.9334342 C79.2434139,37.8725861 79.2057114,37.7747633 79.2057114,37.627738 C79.2057114,37.5909089 79.2090595,37.567181 79.2161924,37.5175418 L79.3038253,36.8850418 C79.3426924,36.6554785 79.4988886,36.6183582 79.802838,36.6183582 L83.2224139,36.6183582 C83.4920089,36.6183582 83.5959456,36.7719342 83.6730975,36.9455987 L83.7853316,37.1844785 Z" id="Fill-20" fill="#D4D8D4"></path>
            <path d="M66.3677373,44.8172177 C66.623212,45.2269962 66.934731,45.5567114 67.2554209,45.711743 L67.8326044,46.0334519 C67.9534272,46.0989582 67.9921704,46.1854266 67.9921704,46.3266291 C67.9921704,46.3624392 67.9928766,46.3851481 67.9858892,46.4327494 L67.9024778,47.2721038 C67.8649209,47.4920595 67.7148386,47.5278696 67.4236994,47.5278696 L64.5200222,47.5278696 C64.0234842,47.5278696 63.9862184,47.3840468 63.7620411,46.9790722 L61.3272437,42.5456038 L60.4127753,43.4226608 L60.4124842,44.670338 C60.4124842,45.0970025 60.6135158,45.5444835 60.945269,45.711743 L61.5224525,46.0334519 C61.6432753,46.0989582 61.6821424,46.1854266 61.6821424,46.3266291 C61.6821424,46.3624392 61.683307,46.3851481 61.6761741,46.4327494 L61.5923259,47.2721038 C61.5550601,47.4920595 61.4048323,47.5278696 61.113693,47.5278696 L56.3033449,47.5278696 C56.0122057,47.5278696 55.8619778,47.4920595 55.8244209,47.2721038 L55.7411551,46.4327494 C55.733731,46.3851481 55.7348292,46.3624392 55.7348292,46.3266291 C55.7348292,46.1854266 55.7739082,46.0989582 55.8944399,46.0334519 L56.4719146,45.711743 C56.7926044,45.5567114 56.9349715,45.0970025 56.9349715,44.670338 L56.9349715,35.1529962 C56.9349715,34.7267684 56.8025032,34.2814709 56.4719146,34.112319 L55.8944399,33.7901734 C55.7739082,33.7246671 55.7348292,33.6379076 55.7348292,33.4965595 C55.7348292,33.4614772 55.733731,33.4384772 55.7411551,33.3911671 L55.8244209,32.7921481 C55.8619778,32.5721924 56.0122057,32.5363823 56.3033449,32.5363823 L59.7895918,32.5363823 C60.1324082,32.5363823 60.4100095,32.8144203 60.4100095,33.1573823 L60.4100095,40.3815658 L61.9597437,38.9824962 C62.1802816,38.7919456 62.5428956,38.4750405 62.6839525,38.3342747 C62.8251551,38.1936544 62.8541234,37.9840342 62.6529462,37.9004772 L62.1056044,37.6527177 C61.9844905,37.5975468 61.9499905,37.5084582 61.9499905,37.3740975 C61.9499905,37.3406165 61.9529019,37.3190722 61.9595981,37.2738 L62.0390791,36.5060658 C62.0745981,36.297319 62.2172563,36.2634013 62.4938386,36.2634013 L66.668193,36.2634013 C66.9449209,36.2634013 67.0875791,36.297319 67.1229525,36.5060658 L67.2025791,37.2738 C67.208693,37.3189266 67.2104399,37.3409076 67.2118956,37.3740975 C67.2203386,37.5407747 67.024693,37.6205468 66.9034335,37.6757177 C66.9034335,37.6757177 66.6066171,37.7617494 66.3373133,37.9156165 C66.0677184,38.0694835 65.7803639,38.2994835 65.416731,38.6248316 L63.8071677,40.169762 L66.3677373,44.8172177 Z" id="Fill-22" fill="#D4D8D4"></path>
            <path d="M62.7020468,24.4080513 L62.7062684,24.3367222 L62.2295278,24.3367222 C62.2110405,24.7638234 62.4708823,25.0503044 62.9030785,25.0503044 C63.3741418,25.0503044 63.6593127,24.7638234 63.6593127,24.2920323 C63.6593127,24.0198171 63.5510089,23.7579373 63.2661291,23.6890829 L63.2661291,23.6797665 C63.5151987,23.5801968 63.5805595,23.3205006 63.5805595,23.0790006 C63.5805595,22.670969 63.3434266,22.4105449 62.9311734,22.4105449 C62.4634582,22.4105449 62.3162873,22.7521968 62.331281,23.165469 L62.7742494,23.165469 L62.7742494,23.1123361 C62.7742494,23.0002475 62.7975405,22.8466715 62.9442747,22.8466715 C63.0921734,22.8466715 63.1193949,22.9944247 63.1193949,23.1073867 C63.1193949,23.3919753 63.0039582,23.4458361 62.7279582,23.4458361 L62.7279582,23.8888044 C63.0164772,23.8787601 63.1125532,23.9585323 63.1125532,24.2455956 C63.1125532,24.3965513 63.0994519,24.6070449 62.8928886,24.6070449 C62.7569266,24.6070449 62.7020468,24.4917538 62.7020468,24.4080513" id="Fill-24" fill="#D4D8D4"></path>
            <polygon id="Fill-26" fill="#D4D8D4" points="61.8886184 22.4486842 60.5065804 22.4486842 60.5065804 22.8883044 61.1942513 22.8883044 60.3962386 25.0089627 60.9256753 25.0089627"></polygon>
            <path d="M59.1438449,24.6070741 C58.9678513,24.6070741 58.9314589,24.3750361 58.9314589,24.2456247 C58.9314589,24.1127196 58.9678513,23.8739854 59.1404968,23.8739854 C59.3046994,23.8739854 59.3652563,24.117669 59.3652563,24.2456247 C59.3652563,24.3700867 59.3164905,24.6070741 59.1438449,24.6070741 M59.1381677,22.8063778 C59.275731,22.8063778 59.2939272,22.9835361 59.2939272,23.0790297 C59.2939272,23.1703019 59.2939272,23.3662386 59.1381677,23.3662386 C59.0110854,23.3662386 58.9959462,23.1703019 58.9959462,23.0758272 C58.9959462,22.9813525 59.0167627,22.8063778 59.1381677,22.8063778 M59.436731,23.6298652 L59.436731,23.623169 C59.6738639,23.5438335 59.7875538,23.3254791 59.7875538,23.08165 C59.7875538,22.7065171 59.5348449,22.4105741 59.1489399,22.4105741 C58.7566297,22.4105741 58.5075601,22.7065171 58.5075601,23.08165 C58.5075601,23.3254791 58.6286741,23.5438335 58.8553259,23.6217133 L58.8553259,23.6298652 C58.539731,23.7364222 58.4106108,23.9769032 58.4106108,24.3069095 C58.4106108,24.7283335 58.7208196,25.0503335 59.1489399,25.0503335 C59.5776424,25.0503335 59.8799905,24.7283335 59.8799905,24.3069095 C59.8799905,23.9849095 59.7585854,23.7311816 59.436731,23.6298652" id="Fill-28" fill="#D4D8D4"></path>
            <polygon id="Fill-30" fill="#D4D8D4" points="57.7148753 22.4486842 56.9804766 22.4486842 56.9804766 22.8883044 57.2261981 22.8883044 57.2261981 25.0089627 57.7148753 25.0089627"></polygon>
            <polygon id="Fill-32" fill="#D4D8D4" points="29.0817968 22.4486842 27.9620753 22.4486842 27.9620753 25.0089627 29.0871829 25.0089627 29.0871829 24.5323677 28.5150943 24.5323677 28.5150943 23.9551842 29.0126513 23.9551842 29.0126513 23.4807728 28.5150943 23.4807728 28.5150943 22.9232411 29.0817968 22.9232411"></polygon>
            <path d="M34.0359968,24.4056348 C33.8534525,24.4056348 33.7106487,24.5485842 33.7106487,24.7250146 C33.7106487,24.9042108 33.8534525,25.0503627 34.0359968,25.0503627 C34.2143196,25.0503627 34.3520285,24.9042108 34.3520285,24.7250146 C34.3520285,24.5485842 34.2143196,24.4056348 34.0359968,24.4056348" id="Fill-34" fill="#D4D8D4"></path>
            <polygon id="Fill-36" fill="#D4D8D4" points="33.3342348 22.4486842 31.9047411 22.4486842 31.9047411 22.9232411 32.3392665 22.9232411 32.3392665 25.0089627 32.8975259 25.0089627 32.8975259 22.9232411 33.3342348 22.9232411"></polygon>
            <path d="M31.1304272,23.0259842 L31.1304272,22.5316297 C30.9727753,22.4534589 30.8151234,22.4105158 30.6338892,22.4105158 C30.1565665,22.4105158 29.9013829,22.7540601 29.9013829,23.1620918 C29.9013829,23.5319842 30.0963006,23.7238449 30.4180095,23.9194905 C30.5720222,24.0264842 30.7471424,24.0978133 30.7471424,24.2920032 C30.7471424,24.4636297 30.6075411,24.5722247 30.4233956,24.5722247 C30.2629778,24.5722247 30.132693,24.5202563 30.0043006,24.4346614 L30.0043006,24.9208639 C30.132693,25.0038386 30.3251361,25.0502753 30.482788,25.0502753 C31.0021804,25.0502753 31.2911361,24.7051297 31.2911361,24.2503703 C31.2911361,23.5570222 30.4450854,23.5319842 30.4450854,23.112307 C30.4450854,22.9580032 30.5563006,22.8600348 30.7234146,22.8600348 C30.8799019,22.8600348 31.0138259,22.9363133 31.1304272,23.0259842" id="Fill-38" fill="#D4D8D4"></path>
            <path d="M60.3834576,10.372738 C60.3501222,10.4347506 60.305869,10.4938519 60.245312,10.542181 C60.245312,10.542181 59.9515525,10.7900861 59.4474449,11.1834152 C57.8482171,12.430219 54.2692424,15.2117633 52.2485905,16.7109848 C52.2975019,16.8658709 52.3481601,17.0292 52.4007108,17.1993709 C54.4443627,15.6771494 57.8872297,13.0012886 59.4474449,11.7849089 C59.9515525,11.3917253 60.245312,11.1436747 60.245312,11.1436747 C60.4377551,10.9902443 60.4792424,10.7357886 60.4451791,10.5894911 C60.421888,10.4884658 60.3924829,10.3993772 60.3834576,10.372738 M38.9947677,16.7108392 C36.9741158,15.2113266 33.3954323,12.430219 31.7959133,11.1832696 C31.2916601,10.7899405 30.9983373,10.5418899 30.9983373,10.5418899 C30.9374892,10.4934152 30.8932361,10.4346051 30.8600462,10.3725924 C30.8511665,10.3990861 30.8216158,10.4881747 30.7984703,10.5892 C30.7642614,10.7357886 30.8057487,10.9900987 30.9983373,11.1433835 C30.9983373,11.1433835 31.2916601,11.3915797 31.7959133,11.7847633 C33.3561285,13.001143 36.7991411,15.6768582 38.842793,17.1992253 C38.8951981,17.0290544 38.9461475,16.8658709 38.9947677,16.7108392 M55.0920019,27.0031937 C55.1575082,27.2404722 55.0414892,27.4709089 54.9279449,27.5691684 C54.8344892,27.6502506 54.7429259,27.7134278 54.7429259,27.7134278 C54.7429259,27.7134278 54.6545652,27.7808266 54.5487361,27.8447316 C54.419907,27.9223203 54.164869,27.9616241 53.9596158,27.8259532 C53.9596158,27.8259532 53.6332487,27.6234658 53.1035209,27.265219 C51.4229196,26.1297759 47.6720272,23.5855101 45.6218247,22.1271937 C43.571331,23.5855101 39.820293,26.1297759 38.1401285,27.2655101 C37.6104006,27.6234658 37.2837424,27.8259532 37.2837424,27.8259532 C37.0783437,27.9616241 36.8234513,27.9223203 36.6947677,27.8445861 C36.588793,27.7809722 36.5002867,27.7134278 36.5002867,27.7134278 C36.5002867,27.7134278 36.408869,27.6502506 36.3154133,27.5691684 C36.2017234,27.4709089 36.08585,27.2404722 36.1513563,27.0031937 C36.1513563,27.0031937 36.1678057,26.9363772 36.1996854,26.8139532 C36.2328753,26.8784405 36.2740715,26.9318646 36.3154133,26.9676747 C36.408869,27.0486114 36.5002867,27.1117886 36.5002867,27.1117886 C36.5002867,27.1117886 36.588793,27.1794785 36.6947677,27.2430924 C36.8234513,27.3208266 37.0783437,27.3599848 37.2837424,27.2243139 C37.2837424,27.2243139 37.6104006,27.0219722 38.1401285,26.6640165 C39.820293,25.5281367 43.571331,22.9840165 45.6218247,21.5255544 C47.6720272,22.9840165 51.4229196,25.5281367 53.1035209,26.6638709 C53.6332487,27.0219722 53.9596158,27.2243139 53.9596158,27.2243139 C54.164869,27.3599848 54.419907,27.3208266 54.5487361,27.243238 C54.6545652,27.1794785 54.7429259,27.1117886 54.7429259,27.1117886 C54.7429259,27.1117886 54.8344892,27.0486114 54.9279449,26.9676747 C54.9692867,26.9318646 55.0104829,26.8784405 55.0436728,26.8139532 C55.0755525,26.9363772 55.0920019,27.0031937 55.0920019,27.0031937" id="Fill-40" fill="#D4D8D4"></path>
            <path d="M40.2357196,16.307757 L37.0010171,26.2479785 C36.9954854,26.264719 37.0010171,26.2839342 37.0161563,26.2948519 C37.0161563,26.2948519 37.0398842,26.3158139 37.06565,26.3344468 C37.0914158,26.3532253 37.1184918,26.3690924 37.1184918,26.3690924 C37.133631,26.3803013 37.1535741,26.3795734 37.1679854,26.3690924 L45.6223778,20.2211051 L54.0764791,26.3690924 C54.0907449,26.3795734 54.1108335,26.3801557 54.1259728,26.369238 C54.1259728,26.369238 54.1531943,26.3529342 54.1788146,26.3343013 C54.2047259,26.3156684 54.2280171,26.2945608 54.2280171,26.2945608 C54.2437386,26.2837886 54.2491247,26.264719 54.2434475,26.2478329 L51.0087449,16.3074658 L59.4685234,10.1669025 C59.4830804,10.1565671 59.489631,10.1377886 59.4842449,10.1201747 C59.4842449,10.1201747 59.477112,10.0891684 59.4670677,10.0588899 C59.4574601,10.0286114 59.44465,9.99978861 59.44465,9.99978861 C59.4389728,9.98188354 59.4225234,9.97067468 59.4049095,9.97082025 L48.9511184,9.97533291 L45.7252956,0.0322 C45.7199095,0.0151683544 45.704188,0.00294050633 45.6855551,0.00294050633 C45.6855551,0.00294050633 45.6539665,2.91139241e-05 45.6220867,2.91139241e-05 C45.5904981,2.91139241e-05 45.5587639,0.00294050633 45.5587639,0.00294050633 C45.540131,0.00294050633 45.5245551,0.0151683544 45.5190234,0.0322 L42.2930551,9.97533291 L31.8397006,9.97067468 C31.8219411,9.97052911 31.8054918,9.98173797 31.799669,9.99964304 C31.799669,9.99964304 31.78715,10.0286114 31.7773968,10.0588899 C31.7674981,10.0891684 31.7606563,10.1198835 31.7606563,10.1198835 C31.7548335,10.137643 31.7615297,10.1564215 31.7759411,10.166757 L40.2357196,16.307757 Z" id="Fill-42" fill="#D4D8D4"></path>
        </g>
    </g>
</svg>