<?xml version="1.0" encoding="UTF-8"?>
<svg width="176px" height="100px" viewBox="0 0 176 100" version="1.1" xmlns="http://www.w3.org/2000/svg" xmlns:xlink="http://www.w3.org/1999/xlink">
    <!-- Generator: Sketch 56 (81588) - https://sketch.com -->
    <title>Logo / Essity /1440</title>
    <desc>Created with Sketch.</desc>
    <g id="Logo-/-Essity-/1440" stroke="none" stroke-width="1" fill="none" fill-rule="evenodd">
        <g id="Logo-/-Essity">
            <rect id="Rectangle-Copy-5" fill-opacity="0.1" fill="#D8D8D8" opacity="0" x="0" y="0" width="176" height="100"></rect>
            <g id="Group-19" transform="translate(35.000000, 37.000000)" fill="#D4D8D4">
                <polygon id="Fill-1" points="102.073815 6.21284718 98.5513112 15.6135671 94.7265008 6.21284718 90.7943138 6.21284718 96.6614826 19.7185314 93.9462306 26.4417852 97.5370151 26.4417852 105.637618 6.21284718"></polygon>
                <polygon id="Fill-3" points="75.4565818 21.342485 79.085361 21.342485 79.085361 6.21223308 75.4565818 6.21223308"></polygon>
                <path d="M77.1108361,0.155616964 C75.909621,0.155616964 74.9688439,1.06768393 74.9688439,2.23124196 C74.9688439,3.379425 75.909621,4.27831339 77.1108361,4.27831339 C78.3120512,4.27831339 79.2528283,3.379425 79.2528283,2.23124196 C79.2528283,1.06768393 78.3120512,0.155616964 77.1108361,0.155616964" id="Fill-5"></path>
                <path d="M89.5802433,21.1951513 L89.5802433,18.2552317 C88.998672,18.5111156 88.4391717,18.5918344 87.80463,18.5918344 C86.7601191,18.5918344 86.2304147,17.9987987 86.2304147,16.8286513 L86.2304147,9.2377942 L89.4676811,9.2377942 L89.4676811,6.46041027 L86.2304147,6.46041027 L86.2304147,3.23770045 L82.5942147,3.23770045 L82.5942147,6.46041027 L80.696659,6.46041027 L80.696659,9.2377942 L82.5942147,9.2377942 L82.5942147,17.1367004 C82.5942147,20.0112763 84.2142273,21.5943522 87.1568457,21.5943522 C88.0948639,21.5943522 88.8855581,21.4669594 89.5802433,21.1951513" id="Fill-7"></path>
                <path d="M53.507925,8.84562188 C52.1373149,8.84562188 51.2859254,9.46721116 51.2859254,10.4687826 C51.2859254,11.4538808 51.9464006,11.8497871 54.2296473,12.2330638 C57.7858399,12.7799746 59.844514,13.7074165 59.844514,16.8290906 C59.844514,19.8749879 57.657828,21.6223286 53.8456116,21.6223286 C47.3059693,21.6458585 47.5603378,16.5468496 47.5603378,16.5468496 L50.9918291,16.5468496 C51.1386014,18.2007603 51.9971639,18.8981263 53.8180228,18.9003228 C55.5445281,18.9019701 56.3490167,18.3402335 56.3490167,17.1371397 C56.3490167,16.0839522 55.606327,15.6210549 53.2927326,15.2322871 C49.2923608,14.5975192 47.8748497,13.4021129 47.8748497,10.6648138 C47.8748497,9.26349241 48.4873205,8.08950134 49.6477042,7.26913527 C50.6662816,6.5487067 52.0368918,6.15170223 53.507925,6.15170223 C56.2508007,6.15170223 59.0345077,7.02423348 59.4075079,10.8064835 L56.0328494,10.8064835 C56.0328494,10.8064835 55.8855253,9.8543317 55.3315428,9.3853942 C54.9563355,9.0476933 54.4189063,8.84562188 53.507925,8.84562188" id="Fill-8"></path>
                <path d="M67.033927,8.84562188 C65.6633169,8.84562188 64.8119274,9.46721116 64.8119274,10.4687826 C64.8119274,11.4538808 65.4718508,11.8497871 67.7550975,12.2330638 C71.3118419,12.7799746 73.370516,13.7074165 73.370516,16.8290906 C73.370516,19.8749879 71.18383,21.6223286 67.3716136,21.6223286 C60.8319713,21.6458585 61.085788,16.5468496 61.085788,16.5468496 L64.5172793,16.5468496 C64.6646034,18.2007603 65.5231659,18.8981263 67.3440248,18.9003228 C69.0705301,18.9019701 69.8750187,18.3402335 69.8750187,17.1371397 C69.8750187,16.0839522 69.132329,15.6210549 66.8181829,15.2322871 C62.8183628,14.5975192 61.4008518,13.4021129 61.4008518,10.6648138 C61.4008518,9.26349241 62.0133225,8.08950134 63.1737062,7.26913527 C64.1922836,6.5487067 65.5628938,6.15170223 67.033927,6.15170223 C69.7768027,6.15170223 72.5605097,7.02423348 72.9329581,10.8064835 L69.5588514,10.8064835 C69.5588514,10.8064835 69.4115273,9.8543317 68.8575448,9.3853942 C68.4817858,9.0476933 67.9449083,8.84562188 67.033927,8.84562188" id="Fill-9"></path>
                <path d="M35.6215729,12.2598603 C35.9885036,10.0875924 37.3089022,8.84551205 39.2605318,8.84551205 C41.3622444,8.84551205 42.5231799,9.9942442 42.7124389,12.2598603 L35.6215729,12.2598603 Z M46.328775,13.662829 C46.328775,11.1737263 45.6087081,9.24032009 44.1878864,7.91587366 C42.9497023,6.76165045 41.2458198,6.15159241 39.2605318,6.15159241 C34.8821939,6.15159241 31.825358,9.30950759 31.825358,13.8308558 L31.825358,14.0548915 C31.825358,18.5811817 34.8700548,21.6221371 39.4012346,21.6221371 C43.7155666,21.6221371 45.9590855,19.4432799 46.301738,16.5467397 L42.7825144,16.5467397 C42.6158782,17.7448915 41.8764991,18.8722085 39.4851044,18.8722085 C37.0909509,18.8722085 35.6977179,17.4121326 35.5509457,14.7571996 L46.328775,14.7571996 L46.328775,13.662829 Z" id="Fill-10"></path>
                <path d="M6.4254248,4.05087321 C6.6251675,2.86754732 7.34523443,2.19049821 8.40850567,2.19049821 C9.55399145,2.19049821 10.1863261,2.81593125 10.2895081,4.05087321 L6.4254248,4.05087321 Z M12.2604499,4.81523036 C12.2604499,3.45893571 11.8681376,2.40574821 11.0939967,1.68367232 C10.4191753,1.05494464 9.49053727,0.722185714 8.40850567,0.722185714 C6.02318052,0.722185714 4.35681874,2.4430875 4.35681874,4.90693125 L4.35681874,5.02938214 C4.35681874,7.49542232 6.01600744,9.15317679 8.48520245,9.15317679 C10.8363175,9.15317679 12.0590519,7.96545804 12.2461037,6.386775 L10.3275806,6.386775 C10.2370894,7.03966339 9.83429336,7.65411429 8.53099981,7.65411429 C7.22605094,7.65411429 6.46680796,6.85900714 6.3873523,5.41210982 L12.2604499,5.41210982 L12.2604499,4.81523036 Z" id="Fill-11"></path>
                <path d="M15.0280451,4.05087321 C15.1312271,2.81593125 15.7635617,2.19049821 16.9090475,2.19049821 C17.9728705,2.19049821 18.6923856,2.86754732 18.8921284,4.05087321 L15.0280451,4.05087321 Z M13.0571033,5.41210982 L18.9302009,5.41210982 C18.8507452,6.85900714 18.0915022,7.65411429 16.7865533,7.65411429 C15.4832598,7.65411429 15.0804637,7.03966339 14.9899726,6.386775 L13.0714494,6.386775 C13.2585013,7.96545804 14.4812356,9.15317679 16.8329025,9.15317679 C19.3015457,9.15317679 20.9607344,7.49542232 20.9607344,5.02938214 L20.9607344,4.90693125 C20.9607344,2.4430875 19.2943726,0.722185714 16.9090475,0.722185714 C15.8270159,0.722185714 14.8983778,1.05494464 14.2235565,1.68367232 C13.4499674,2.40574821 13.0571033,3.45893571 13.0571033,4.81523036 L13.0571033,5.41210982 Z" id="Fill-12"></path>
                <path d="M19.3861881,12.5973964 C19.4893701,11.3624545 20.1217047,10.7370214 21.2671905,10.7370214 C22.3304617,10.7370214 23.0505286,11.4140705 23.2502714,12.5973964 L19.3861881,12.5973964 Z M17.4152463,13.958633 L23.2883439,13.958633 C23.2088882,15.4055304 22.4496452,16.2006375 21.1446963,16.2006375 C19.8414028,16.2006375 19.4386067,15.5861866 19.3481156,14.9332982 L17.4295924,14.9332982 C17.6166443,16.5119812 18.8393786,17.6997 21.1910455,17.6997 C23.6596887,17.6997 25.3188774,16.0419455 25.3188774,13.5759054 L25.3188774,13.4534545 C25.3188774,10.9896107 23.6525156,9.26870893 21.2671905,9.26870893 C20.1851589,9.26870893 19.2565208,9.60146786 18.5816995,10.2301955 C17.8081104,10.9522714 17.4152463,12.0054589 17.4152463,13.3623027 L17.4152463,13.958633 Z" id="Fill-13"></path>
                <path d="M15.0280451,21.2541254 C15.1312271,20.0191835 15.7635617,19.3932013 16.9090475,19.3932013 C17.9728705,19.3932013 18.6923856,20.0702504 18.8921284,21.2541254 L15.0280451,21.2541254 Z M13.0571033,22.6153621 L18.9302009,22.6153621 C18.8507452,24.0617103 18.0915022,24.8573665 16.7865533,24.8573665 C15.4832598,24.8573665 15.0804637,24.2429156 14.9899726,23.5900272 L13.0714494,23.5900272 C13.2585013,25.1687103 14.4812356,26.3558799 16.8329025,26.3558799 C19.3015457,26.3558799 20.9607344,24.6986746 20.9607344,22.2320853 L20.9607344,22.1101835 C20.9607344,19.6463397 19.2943726,17.9254379 16.9090475,17.9254379 C15.8270159,17.9254379 14.8983778,18.2576478 14.2235565,18.8869246 C13.4499674,19.6084513 13.0571033,20.6621879 13.0571033,22.0184826 L13.0571033,22.6153621 Z" id="Fill-14"></path>
                <path d="M2.06888195,12.5973964 C2.26862465,11.4140705 2.9881398,10.7370214 4.05196282,10.7370214 C5.1974486,10.7370214 5.82978323,11.3624545 5.93296524,12.5973964 L2.06888195,12.5973964 Z M7.90390705,13.3623027 C7.90390705,12.0054589 7.51104294,10.9522714 6.73690203,10.2301955 C6.06208068,9.60146786 5.13399442,9.26870893 4.05196282,9.26870893 C1.66608589,9.26870893 0.000275887711,10.9896107 0.000275887711,13.4534545 L0.000275887711,13.5759054 C0.000275887711,16.0419455 1.65891281,17.6997 4.12810783,17.6997 C6.4792229,17.6997 7.70250902,16.5119812 7.88900911,14.9332982 L5.97103774,14.9332982 C5.87999479,15.5861866 5.47775051,16.2006375 4.17390519,16.2006375 C2.86950809,16.2006375 2.11026511,15.4055304 2.03080944,13.958633 L7.90390705,13.958633 L7.90390705,13.3623027 Z" id="Fill-15"></path>
                <path d="M10.7765603,12.5973964 C10.976303,11.4140705 11.6958181,10.7370214 12.7590893,10.7370214 C13.9045751,10.7370214 14.5374615,11.3624545 14.6406435,12.5973964 L10.7765603,12.5973964 Z M16.6110336,13.3623027 C16.6110336,12.0054589 16.2187212,10.9522714 15.4445803,10.2301955 C14.769759,9.60146786 13.8416727,9.26870893 12.7590893,9.26870893 C10.3737642,9.26870893 8.70740242,10.9896107 8.70740242,13.4534545 L8.70740242,13.5759054 C8.70740242,16.0419455 10.3665911,17.6997 12.8357861,17.6997 C15.1869012,17.6997 16.4096355,16.5119812 16.5966874,14.9332982 L14.678716,14.9332982 C14.5876731,15.5861866 14.184877,16.2006375 12.8815835,16.2006375 C11.5771864,16.2006375 10.8173916,15.4055304 10.737936,13.958633 L16.6110336,13.958633 L16.6110336,13.3623027 Z" id="Fill-16"></path>
                <path d="M6.4254248,21.2541254 C6.6251675,20.0702504 7.34523443,19.3932013 8.40850567,19.3932013 C9.55399145,19.3932013 10.1863261,20.0191835 10.2895081,21.2541254 L6.4254248,21.2541254 Z M12.2604499,22.0184826 C12.2604499,20.6621879 11.8681376,19.6084513 11.0939967,18.8869246 C10.4191753,18.2576478 9.49053727,17.9254379 8.40850567,17.9254379 C6.02318052,17.9254379 4.35681874,19.6463397 4.35681874,22.1101835 L4.35681874,22.2320853 C4.35681874,24.6986746 6.01600744,26.3558799 8.48520245,26.3558799 C10.8363175,26.3558799 12.0590519,25.1687103 12.2461037,23.5900272 L10.3275806,23.5900272 C10.2370894,24.2429156 9.83429336,24.8573665 8.53099981,24.8573665 C7.22605094,24.8573665 6.46680796,24.0617103 6.3873523,22.6153621 L12.2604499,22.6153621 L12.2604499,22.0184826 Z" id="Fill-17"></path>
            </g>
        </g>
    </g>
</svg>